<svg id="Layer_1" data-name="Layer 1" xmlns="http://www.w3.org/2000/svg" viewBox="0 0 590.17 595.4"><defs><style>.cls-1{fill:#fff;}.cls-2{fill:#131313;}.cls-3{fill:#151515;}.cls-4{fill:#191a1a;}.cls-5{fill:#191919;}.cls-6{fill:#111;}.cls-7{fill:#0c0d0e;}.cls-8{fill:#1d1e1e;}.cls-9{fill:#050707;}.cls-10{fill:#272628;}.cls-11{fill:#d5d9e6;}.cls-12{fill:#ebf1f8;}.cls-13{fill:#3a3839;}.cls-14{fill:#c1c8d5;}.cls-15{fill:#9499a9;}.cls-16{fill:#29473d;}.cls-17{fill:#b0b9d0;}.cls-18{fill:#313031;}.cls-19{fill:#27272a;}.cls-20{fill:#c1c7db;}.cls-21{fill:#2e5649;}.cls-22{fill:#b91a1a;}</style></defs><ellipse class="cls-1" cx="414.26" cy="58.42" rx="107.45" ry="57.63"/><path class="cls-2" d="M437.39,169.89l2.47,6.82c-.46.8-1.43,1.7-1.29,2.39a15.17,15.17,0,0,0,3.33,7.44q1.38,5.25,2.74,10.51c1.1,4.5,2.15,9,3.3,13.49q4.29,16.69,8.69,33.35a27,27,0,0,0,1.6,3.73l.09,1.54,1.26,3.8c.58,2.51,1.15,5,1.73,7.53L462,262l.09,1.54c-.36.79-.32,1.37.73,1.45,0,.54,0,1.07,0,1.6l.48.75a117.75,117.75,0,0,0,5.33,20.38c.06.5.12,1,.17,1.5.21.5.41,1,.61,1.5l.17,1.52.66,1.48.12,1.54a26.16,26.16,0,0,0,.57,3.3c.76,2.54,1.64,5,2.47,7.56a2,2,0,0,0,1.35,2.72l-.17,1.59a26.46,26.46,0,0,0,.47,2.94c2.61,9.51,5.3,19,7.89,28.53,1.61,5.89,3.11,11.81,4.62,17.72.55,2.17,1,4.36,1.52,6.54.64,2,.15,4.46,2.36,5.91,1.69-1.88,1.33-3.92,1.2-5.92a2.85,2.85,0,0,1,.14-.63c2.05-.36,1.8-2.22,2.14-3.54.64-2.51,1-5.1,1.43-7.66a16.33,16.33,0,0,0,0-2.62c.05-.43.11-.86.16-1.29,1.33-.14,1.42-1.07,1.51-2.14a49.26,49.26,0,0,1,.72-5.12c.43-2.13,1-4.23,1.51-6.35l.8-3c1.57-.33,2-1,.74-2.28.24-.76.49-1.52.74-2.28,2.79-1.76,3.35-4.62,3.73-7.57q1.86-7.59,3.71-15.19c.29-1,.59-1.94.88-2.9.78-2.52,1.55-5,2.33-7.56H514c.26,2.77.51,5.54.77,8.31-2.28,1.63-2.39,4.31-3,6.64-1.16,4.69-1.91,9.47-2.94,14.19-.62,2.81-2.13,5.6-2,8.33.12,2.34-.67,4-1.35,6-1,2.78-1.16,5.61.51,8.39h2.41c-.15,2.1-.28,4-.46,6.58,3.59-2.36,3.53-6.21,5.86-8.29,2,.83,1.48,3.89,4.31,4.11.21-1.58.39-3,.64-4.93,3.18.6,2.8-4.54,6.4-4,.16,0,.5-.81.68-1.27.32-.82.54-1.67.85-2.49,2.63-6.9,4.88-13.94,8.71-20.33,1.66-2.77,3.2-5.62,4.64-8.52a16.53,16.53,0,0,1,4.91-6.45,28.85,28.85,0,0,0,7.82-9,18.57,18.57,0,0,1,2.55-3.2c2.18-2.39,4.59-4.59,6.57-7.13a6.14,6.14,0,0,1,4.19-2.8,19,19,0,0,1-.9,4q-4.95,10.56-10.12,21c-5.65,11.42-11.37,22.8-17.07,34.19q-6,12-12,23.92c-.66,1.3-1,3-3,3l-.92-1.17-.25.25,1.17.92a8,8,0,0,1-3,6.8l-1.17-.34.42,1.83a25,25,0,0,1-1.35,3.88c-4.69,8.58-9.17,17.31-14.33,25.61-2.55,4.1-3.42,7.79-1.58,12.2.63,1.52,1,3.15,1.53,4.72l.89.13c2.39-3.92,4.79-7.83,7.14-11.78a3.77,3.77,0,0,0,.15-1.49,8.76,8.76,0,0,0,1.5-1.34c1.79-2.56,3.51-5.18,5.26-7.78a23,23,0,0,0,4.41-2.6c1.4-1.29,2.59-2.28,5-.37-1.51-6,3.09-8.11,5.55-11.36,1.12-1.49,2.85-1,3.54.8,1.67,4.31,2.61,8.65-.55,12.79-.19.24-.13.68-.19,1.08l2.52,1c.66,6.25,1.31,12.43,2,19.18,1.59-1.35,2.53-3.15,4.79-1.77v9.63l4-3.66,2.2,3.11c1.62-2,3.77-3.16,4.55-5.81.57-2,1.82-2,3.5-.69,3.17,2.38,4.44,5.81,4.62,9.48a14.59,14.59,0,0,1-1.41,7.22c-.7,1.33-3,1.83-4.66,2.64a20.4,20.4,0,0,1-2.41.82c.71,1.35,1.2,2.46,1.84,3.48a5.14,5.14,0,0,1,.25,5.94c-.87,1.48-1.15,3.29-1.81,4.91a28.92,28.92,0,0,1-1.84,3.59c-.81,1.38-2.07,2.58-2.53,4.06-1.23,3.91-2.14,7.92-3.18,11.89-7.44,3.77-15.46,5.82-23.52,7.66a148.23,148.23,0,0,1-45,2.89,172.43,172.43,0,0,1-72.33-22.52c-9.47-5.4-18.31-11.89-27.41-17.92a39.49,39.49,0,0,1-3.2-2.6,24.9,24.9,0,0,0,0-4c-.43-2.58-1.06-5.13-1.63-7.69a2.37,2.37,0,0,0-.37-.62l-3-.94c1.23-7.65.59-13-3.18-26.64h-12.1V401c2.1,0,4.21,0,6.31,0a5.38,5.38,0,0,0,2.45-.6,17.23,17.23,0,0,0,3.59-2.62c.82-.81,2-2.28,1.78-2.94-1-2.59.14-4.95.23-7.39a61.4,61.4,0,0,1,.91-10.44c.93-4.4.31-8.72.51-13.07l-3-1.33a17.64,17.64,0,0,0,.48-1.95c.6-4.32,1.52-8.63,1.66-13,.16-4.86-.39-9.74-.66-14.61a21.56,21.56,0,0,0-.51-2.6l-3,1.87c-.22-.51-.42-1.1-.7-1.64-1.81-3.53-3.37-3.66-6.34-1.15-2.33,2-2.84,4.7-3.7,7.25-1.23,3.62-2.31,7.41.1,11.08a7.34,7.34,0,0,1,.44,1.66c-3.37-.89-2.56,2.06-3.49,3.9l-1.62-2c-2.84.48-1.79,4.68-5.21,4.69.08-1,.18-1.8.21-2.64.22-4.94,2.21-9.82.47-14.83-.32-.91-.29-2.14-.89-2.71s-1.74-.31-2.71-.43c1.09-5.48,3.08-10.75,1.35-16.35-.3-1,.09-2.09,1.65-1.65,1.66,3.25.35,7.75,4.29,10.44l1.41-2.86c.09,5.32.09,5.32,1,6.12a26.46,26.46,0,0,1,1.59-3.25c2.66-4,2.54-6.47-.42-10.13a12,12,0,0,1-1.31-2.91l1.37-.95-1.37-1.31c-1.4-.87-2.84-1.73-2.27-3.78l1.18-.93-1.18-.58,1.51-3c1.58-.23,2.07.74,2.6,2,.74,1.81,1.9,3.46,2.72,5.25.74,1.64,2.07,3,2.69,4.51s-.45,3.57-.75,5.41a7.33,7.33,0,0,0,0,1.24c1.52-1.5,3.66-2.39,3.2-5.05-.78-4.51-.11-5.61,4.09-7.73,1.95,2.48-1.1,3.87-1.54,6.24l4.07-.93c-1-3.08-.54-4.36,1.8-5.68,2-1.13,2.39-1,4.55,1.5,0,1,0,2,0,3l-3.37.2c1.25,1.73,2.76,1.13,4.13,1.31l.76,6.8v2.26l.75,3a42.48,42.48,0,0,1-.19,6.78c-.64,3.56-1.8,7,.06,10.56a.57.57,0,0,1,.06.36c-.43,1.55-1.33,3.13-1.2,4.63s1.41,2.71,2,4.14a10.32,10.32,0,0,1,.41,2.61c2.58.8,2.24-1.8,3.58-2.49a41,41,0,0,0,3.84,4c5.56,4.45,11.16,8.75,15,15,1.27,2,2.36,3.6,1.31,6.09l4,1.75c-.41-1.32-.65-2-.84-2.67-1-3.86-2.73-7.68-2.93-11.59-.3-6-2-11.56-3.22-17.3-.3-1.45-1.54-3-1.24-4.22.53-2.17-.17-3.9-.66-5.81a12.69,12.69,0,0,1,0-3.32,10.73,10.73,0,0,0,.16-2.17c-.61-3.17-1.37-6.31-2-9.48-.33-1.71-.54-3.45-.72-5.18a2.6,2.6,0,0,1,2-3.15c.25-.06.42-.47.7-.82l-2.81-1.37c.23-3.86.16-7.63,3.92-10.65,2.16,1.14,4.65,2.08,6.7,3.61,3,2.24,5.7,4.89,8.51,7.39.13.12.08.45.13.79l-1.88.74c.29,3,.55,5.67.81,8.37a11.55,11.55,0,0,0,.14,1.88c1.75,6.38,3.46,12.78,5.34,19.12,2.63,8.93,8.19,16.34,13,24.25a6.07,6.07,0,0,0,0-2.72,22,22,0,0,1-1-2.82,26.65,26.65,0,0,0-3.07-9.21c-1.48-2.91-2.81-5.89-4.07-8.9-.8-1.93-.2-2.79,1.86-3.09,1.35-.2,2.73-.29,4.07-.55,3.38-.67,4-.39,5.65,2.73,1.05,2,1.94,4.16,4.56,4.59,1.74,2.89,3.72,5.71,3.08,9.39,0,.09.26.24.41.37.22-.53.43-1.07.81-2,3.27,7.08,8.32,12.83,10.21,20.24.12.43.59.78.88,1.17a49.53,49.53,0,0,1,3.27,4.43c2.19,3.76,4.18,7.65,6.35,11.43,3.81,6.61,7.73,13.16,11.53,19.77,2.92,5.09,5.56,10.35,8.64,15.34,3.48,5.62,7.36,11,10.95,16.56a15.68,15.68,0,0,1,1.28,3.83c-.7-.25-1.43-.45-2.11-.77a8.05,8.05,0,0,0-9.14,1.11c-2.91,2.46-4.38,5.53-3.23,9.64,1.55,5.56,5.39,7.26,9.21,7.24,4.63,0,7.62-3.08,8.33-8a30,30,0,0,0,0-4.74,19.94,19.94,0,0,1,2.84,2.74c2.16,3.05,4.16,6.21,6.23,9.34,1.1,1.12,1.24,3.24,3.42,3.46-.18-3-.33-5.8-.54-8.6,0-.31-.4-.6-.61-.9v-.77c0-.5,0-1,0-1.5-.55-3.94-.63-8.07-4.53-10.57-.82-1.37-1.6-2.77-2.46-4.12-6.44-10.15-13-20.23-19.32-30.45-4.34-7-8.49-14.13-12.56-21.3Q462.86,373,452.36,354c-3.14-5.69-6.06-11.49-9-17.27-3.3-6.43-6.5-12.91-9.84-19.32-.27-.53-1.23-.7-1.86-1h0a29.23,29.23,0,0,0-1.12-5.06c-1.65-4-3.4-8-5.36-11.9-4-8-8.27-15.88-12.41-23.81l-.76-.76a16.76,16.76,0,0,0-.87-3.2c-3.7-7.51-7.46-15-11.21-22.46.07-1.3-.14-2.45-1.51-3-1.45-3.81-2.74-7.7-4.39-11.43-2.68-6-5.58-12-8.45-18-.64-1.33-1.5-2.56-2.27-3.83-.28-1.36-.44-2.81-2.26-3h-.76c0-1.85,0-3.7,0-5.55,0-1.58.55-2.63,2.27-2.77a9.15,9.15,0,0,0,.43,6.18c1.36,2.79,2.57,5.66,3.89,8.48,1.58,3.39,3.21,6.75,4.81,10.13,2,4.17,3.78,8.43,5.94,12.5,5.86,11.05,11.91,22,17.79,33,1.77,3.32,3.13,6.85,4.8,10.22,5.62,11.35,11.24,22.71,17,34,1.59,3.11,3.95,5.82,5.5,8.94,3.52,7.05,6.71,14.26,10.17,21.34.9,1.84,1.69,3.9,4,4.71a36.6,36.6,0,0,1,4.61,2.29c1,.49,1.92,1,2.87,1.5,1.54-1.49,1.09-2.91,1-4.43-.38-4.62.17-9.36-2-13.74-.15-.3,0-.75,0-1.12-.47-3.07-.93-6.15-1.43-9.21-.24-1.47-.7-2.91-.8-4.38-.15-2.26.5-4.73-.22-6.75-1.75-4.93-1.14-9.93-1.34-14.91a23.19,23.19,0,0,0-.6-3.29,34.06,34.06,0,0,1-.85-4.75c-.14-2.88.08-5.79-.07-8.67-.18-3.5.11-7.24-1.07-10.4-1.73-4.65-1.18-9.41-1.73-14.07-.49-4.12-.72-8.19-2.28-12.09a24.17,24.17,0,0,1-1-4c-1-4.76-1.87-9.56-3-14.28-.78-3.15-2.09-6.16-3-9.29-2-7.09-3.85-14.23-5.83-21.34-1.24-4.46-2.78-8.85-3.85-13.35-1.41-6-3.69-8.05-9.93-8,.49-.62.75-1.23,1.22-1.48,2.06-1.12,2.58-2.44,2-4.92s-.18-5.25.1-7.85c.52-4.71,1.42-9.38,1.87-14.09.17-1.76.73-2.83,2.3-3.45l.72,13.52c-.92.73-.63,1.2.32,1.53.15.75.29,1.5.43,2.25-.95,1-.94,1.79.49,2.27.15.93.3,1.87.44,2.8,0,.09-.12.18-.11.27s.11.36.16.55l.57,1.05Zm83.36,182.75c.7-1.44,1.47-2.85,2-4.34.14-.37-.4-1-.62-1.5-.44.32-1.23.61-1.27,1-.16,1.61-.11,3.25-.14,4.87-2.43.49-1.18,2.45-1.51,3.78l-.53,1.6c2.43.72,2.5,3.27,3.54,5,.46-.27.77-.33.86-.51,1.39-2.68-1.67-4.77-1-7.4,0-.21-.87-.65-1.34-1Zm8.59,61.19c1.23-3.21.81-6.32-.14-9.8C526.34,407.71,529.69,410.67,529.34,413.83ZM402.49,316.94c2.27.22,4.15.65,6.15-1.09C406.36,315.63,404.49,315.2,402.49,316.94Zm-48.34,22.45.94,0c0-1,.86-2.15-.94-3.19ZM529,403.3c.31-.88.62-1.31.51-1.54a6,6,0,0,0-1-1.25c-.24.22-.73.52-.69.65A15.24,15.24,0,0,0,529,403.3Zm-95.34-31.22c-.21-.09-.46-.29-.61-.23s-.2.38-.29.59c.21.09.47.3.62.24S433.52,372.3,433.61,372.08Zm94.46,25.69h-.29v1.12h.29Zm-148-39a.82.82,0,0,0-.11-.31s-.18,0-.27.07a.76.76,0,0,0,.11.31S380,358.84,380.07,358.81Z" transform="translate(-73.66 -133.6)"/><path class="cls-3" d="M290.35,551.12c-2.66,2.87-5.29,5.75-8,8.57-.24.24-1,0-1.43.06l-1.28-1.35-.6,1.15-.16.32.18-.31,1.76.3c.08.4.38,1,.21,1.17a27.37,27.37,0,0,1-2.28,2.29,14.73,14.73,0,0,0-2.9.07c-1.66.35-3.41.75-3.61,3-.06.11-.11.22-.16.33l.18-.31c.77-.36,1.54-.7,2.3-1.08,1-.52,1.3.08,1.43.92-4.13,4.55-8.2,9.16-12.42,13.63-8.82,9.33-17.74,18.57-26.58,27.87Q219.32,626.32,201.71,645l-35.54,37.54q-17.38,18.36-34.78,36.71c-2.68,2.83-5.21,5.8-7.95,8.57a4.06,4.06,0,0,1-2.87,1.19c-15-1.77-27.61-8.11-37.06-20.06-6.55-8.3-9-18.09-9.84-28.43-.14-1.81.76-2.77,1.86-3.82,8.81-8.45,17.65-16.87,26.42-25.36q20.35-19.67,40.63-39.4,10.95-10.65,21.87-21.35a9.38,9.38,0,0,1,1.21-.85l.84,0c.33.46.59,1.23,1,1.34,1.65.42,3.36.63,5,.91l4.53.76c5,1.47,10,3,15,4.39.22.06.58-.4.88-.62h1.51l.93,1.18.58-1.18c.75-1.56,2-1.43,3.5-1.31,2.7.21,5.43.06,8.14.07a39.22,39.22,0,0,1,6.33.14,10.06,10.06,0,0,0,5.49-.36,29.38,29.38,0,0,1,6.15-1.5c2.5-.36,3.11.17,4.38,3l.6,1,.89-1,0,0,.75-.74.75-1.51c1.53-.07,1.52-1.17,1.51-2.27l.75-3.77c1.61-.31,2-1,.76-2.27v-2.26c3.11-2.26,3.11-2.37,7.52-2.24,3.81.12,7.31-1,10.79-2.3.55-.21.89-1,1.33-1.5h.75l1.51-.76h.75l1.19-.93-1.18-.58c1.76-2.71,4.31-4.95,5-8.29,0-.11.15-.2.25-.28,2.39-2,4.81-4,7.17-6a5.5,5.5,0,0,0,1.9-2.24c.67-2.45,2.37-4.06,4-5.77a12,12,0,0,0,1.21-1.85,30,30,0,0,1,3.1-4.59c1.59-1.65,1.67-3.14.69-5.07a30.35,30.35,0,0,1-2.26-5.52c-2.14-7.7-3.74-15.55-6.66-23a44.06,44.06,0,0,1-2.36-7.47c-1-4.88-1.62-9.82-2.41-14.74l2.14-2c.35,1.2.76,2.38,1.06,3.59,1.52,6,3,12.07,4.55,18.09.59,2.3,1.34,4.55,2.08,6.81,1.69,5.21,3.44,10.41,5.12,15.64C285.33,539,287.06,545.33,290.35,551.12Zm-5.25,1.64.17-.32-.18.31-.17.32Zm-16.64,16.59c-1.15.14-2.06.48-1.16,2.22l1.19-2.19.16-.33ZM212.85,600,198,597.52C202.06,600.13,209.24,601.38,212.85,600Zm12.58-.09c-1.83-.27-1.83-.27-3.35.48C223.74,600.89,223.74,600.89,225.43,600Zm-6.06,1.49c-.46-.5-.64-.86-.88-.91s-.63.15-.94.24c.09.29.14.8.28.83A6.87,6.87,0,0,0,219.37,601.44Zm64-46.34a2.72,2.72,0,0,0-.47-.31c-.05,0-.27.16-.26.22a2.28,2.28,0,0,0,.24.53Zm-19.7,18.26a1.07,1.07,0,0,0,.1-.32s-.17-.07-.27-.1a.9.9,0,0,0-.09.32S263.56,573.33,263.65,573.36Z" transform="translate(-73.66 -133.6)"/><path class="cls-4" d="M433.85,145.07c-1.57.62-2.13,1.69-2.3,3.45-.45,4.71-1.35,9.38-1.87,14.09-.28,2.6-.67,5.37-.1,7.85s.06,3.8-2,4.92c-.47.25-.73.86-1.22,1.48,6.24-.08,8.52,2,9.93,8,1.07,4.5,2.61,8.89,3.85,13.35,2,7.11,3.83,14.25,5.83,21.34.89,3.13,2.2,6.14,3,9.29,1.17,4.72,2,9.52,3,14.28a24.17,24.17,0,0,0,1,4c1.56,3.9,1.79,8,2.28,12.09.55,4.66,0,9.42,1.73,14.07,1.18,3.16.89,6.9,1.07,10.4.15,2.88-.07,5.79.07,8.67a34.06,34.06,0,0,0,.85,4.75,23.19,23.19,0,0,1,.6,3.29c.2,5-.41,10,1.34,14.91.72,2,.07,4.49.22,6.75.1,1.47.56,2.91.8,4.38.5,3.06,1,6.14,1.43,9.21.05.37-.12.82,0,1.12,2.13,4.38,1.58,9.12,2,13.74.12,1.52.57,2.94-1,4.43-.95-.5-1.91-1-2.87-1.5a36.6,36.6,0,0,0-4.61-2.29c-2.32-.81-3.11-2.87-4-4.71-3.46-7.08-6.65-14.29-10.17-21.34-1.55-3.12-3.91-5.83-5.5-8.94-5.77-11.28-11.39-22.64-17-34-1.67-3.37-3-6.9-4.8-10.22-5.88-11-11.93-22-17.79-33-2.16-4.07-4-8.33-5.94-12.5-1.6-3.38-3.23-6.74-4.81-10.13-1.32-2.82-2.53-5.69-3.89-8.48a9.15,9.15,0,0,1-.43-6.18l.75-.75c1,.41,2.09,1.24,2.27-.75l6.65-3.51c-.1-.25-.21-.5-.32-.75a8.89,8.89,0,0,1-1.68.32,16.63,16.63,0,0,1-2.1-.16c.37-4,.19-4.44-2.42-7.49-1.36-1.59-2.58-3.3-3.85-4.94,1.09-2.74,3.17-4.53,4.64-6.72,4.87-7.28,11.37-12.9,17.78-18.67a10.8,10.8,0,0,0,1.6-2.76l0,0,.92-.56.11,0a.72.72,0,0,0,.56-.39c8.26-5.1,17.14-8.81,26.66-12.2C434,143.48,433.91,144.27,433.85,145.07Z" transform="translate(-73.66 -133.6)"/><path class="cls-4" d="M566.08,280.15a6.14,6.14,0,0,0-4.19,2.8c-2,2.54-4.39,4.74-6.57,7.13a18.57,18.57,0,0,0-2.55,3.2,28.85,28.85,0,0,1-7.82,9,16.53,16.53,0,0,0-4.91,6.45c-1.44,2.9-3,5.75-4.64,8.52-3.83,6.39-6.08,13.43-8.71,20.33-.31.82-.53,1.67-.85,2.49-.18.46-.52,1.3-.68,1.27-3.6-.54-3.22,4.6-6.4,4-.25,1.92-.43,3.35-.64,4.93-2.83-.22-2.33-3.28-4.31-4.11-2.33,2.08-2.27,5.93-5.86,8.29.18-2.6.31-4.48.46-6.58H506c-1.67-2.78-1.47-5.61-.51-8.39.68-2,1.47-3.67,1.35-6-.13-2.73,1.38-5.52,2-8.33,1-4.72,1.78-9.5,2.94-14.19.57-2.33.68-5,3-6.64.49,2.89,1,5.77,1.47,8.66.58,3.92,1.09,7.85,1.64,11.77l.83.06c.37-1.64,1.3-3.39,1-4.88a11.3,11.3,0,0,1,.35-5.79l.72-2.28c.26-1.26.52-2.51.77-3.76,0-.25,0-.5,0-.74l.75-2.28a28.63,28.63,0,0,0,1.17-3.16c3.4-14.32,6.88-28.62,10.1-43,2.37-10.57,4.46-21.21,6.52-31.85.92-4.79,1.49-9.66,2.35-15.4a15.42,15.42,0,0,0-2.13,2.36c-2.25,4.46-4.36,9-6.67,13.43-1,1.88-1.35,4.34-3.88,5.08,0-.76-.07-1.51-.11-2.27.16-.82.31-1.64.47-2.47l.84-2.83.39-1.47c.57-1.85,1.23-3.68,1.7-5.55,1-3.94,1.84-7.9,2.75-11.85a.4.4,0,0,0,.25-.48c.11-.59.22-1.18.34-1.77,1.86-6.06,3.67-12.14,5.61-18.17.87-2.73,1.92-5.41,3-8.05A75.42,75.42,0,0,0,551.06,146a13.88,13.88,0,0,1,.16-1.54c11.83,3.74,23.12,8.21,33,15.78l.76.59.84.59c.56,1.2.87,2.61,1.71,3.56,2.37,2.7,5.41,4.9,7.33,7.85,3.2,4.9,4.15,6.57-.06,10.66a77,77,0,0,0-12,8.55l6.7,2.78,3.79,2.25,1.5.77,8.32,6c-.26,1.26-.51,2.51-.77,3.77-3.69,4-5.69,9.09-8,13.9-4.16,8.68-8.06,17.49-12.07,26.24-.67,1.48-1.21,3-2,4.47-1.93,3.78-3.94,7.52-5.91,11.28-.51.28-1.25.44-1.51.88-2,3.52-4.17,7-5.94,10.68-.72,1.48-.6,3.36-.87,5.06ZM523.32,338.6l.85,0c.27-1,.79-2-.85-3.43Z" transform="translate(-73.66 -133.6)"/><path class="cls-5" d="M548.69,474.06c1-4,1.95-8,3.18-11.89.46-1.48,1.72-2.68,2.53-4.06a28.92,28.92,0,0,0,1.84-3.59c.66-1.62.94-3.43,1.81-4.91a5.14,5.14,0,0,0-.25-5.94c-.64-1-1.13-2.13-1.84-3.48a20.4,20.4,0,0,0,2.41-.82c1.63-.81,4-1.31,4.66-2.64a14.59,14.59,0,0,0,1.41-7.22c-.18-3.67-1.45-7.1-4.62-9.48-1.68-1.26-2.93-1.26-3.5.69-.78,2.65-2.93,3.83-4.55,5.81l-2.2-3.11-4,3.66v-9.63c-2.26-1.38-3.2.42-4.79,1.77-.71-6.75-1.36-12.93-2-19.18l-2.52-1c.06-.4,0-.84.19-1.08,3.16-4.14,2.22-8.48.55-12.79-.69-1.78-2.42-2.29-3.54-.8-2.46,3.25-7.06,5.39-5.55,11.36-2.39-1.91-3.58-.92-5,.37a23,23,0,0,1-4.41,2.6,29.75,29.75,0,0,1,1.42-3.45c4.55-8.19,9.19-16.34,13.74-24.54,6.74-12.16,13.53-24.3,20.13-36.53,4.52-8.39,8.74-16.95,13.14-25.41a24.47,24.47,0,0,1,2.18-3c.17.91.75,2,.45,2.7-1.43,3.44-3.06,6.81-4.69,10.17-.82,1.68-1.84,3.27-2.7,4.94a4,4,0,0,0-.13,1.45c2.62-3.06,4.44-6.5,6.91-9.4a26,26,0,0,0,5.16-10.27c2.12-7.72,4.3-15.39,8-22.56.25-.49-.07-1.28-.12-1.93.26-.5.51-1,.76-1.51,2.29-.78,3-2.8,3.66-4.81.1-.31-.41-.81-.64-1.23.5-1,1-2,1.52-3,2.12-.45,2.2-2.11,2.25-3.79,0-.25,0-.49,0-.74,2.17-.26,3.65.39,4.08,2.79.22,1.22.94,2.36,1.1,3.58a13.68,13.68,0,0,0,4.3,8.07,18.4,18.4,0,0,1,3,3.81c2.34,4.11,3.59,4.52,7.77,2.18a10.44,10.44,0,0,1,1.91-1.17A8.61,8.61,0,0,1,614,285a21.12,21.12,0,0,1-4.48,4c-3.91,2.88-7.13,6.24-8.22,11.22-.3,1.33-1,2.56-1.46,3.87-.64,1.9-1.65,3.72-1.3,5.89a16.65,16.65,0,0,0,2.26-4.57c1.45-5.15,4.84-9,8.29-12.81,1.51-1.67,3-2.4,4.5-1l5.17-6.95a29.84,29.84,0,0,1,1.37-4.49c1-2.25,2.89-4.12,2.79-6.87a2.11,2.11,0,0,1,1-1.49c3-1.62,4.05-4.67,5.69-7.29,2.31-3.71,4.62-7.42,6.87-11.17,2.4-4,4.62-8.05,7.13-11.94,1.42-2.2,3.27-4.1,6.19-4.31.63,1.7,1.29,3.39,1.89,5.1.27.78.42,1.59.63,2.39-2.93,1.11-3.05,3.83-4,6.36l3.16.35-1.15,1.56q-4.44,5.81-8.87,11.61c-2.06,2.68-4,5.44-6.23,8s-5,4.87-7.33,7.46c-1.9,2.1-3.48,4.5-5.28,6.7a52.42,52.42,0,0,0-9.76,17.64,5.91,5.91,0,0,1-.71,2.11c-1.74,2-1.61,4.39-1.56,6.78,0,1.11,0,2.23,0,3.79-3.34-.26-4,2-4.8,4.4a75.49,75.49,0,0,1-3.36,8.77,208.59,208.59,0,0,0-8.25,20.57c-2.31,6.61-2.24,12.73,2,18.56.49.69.51,1.71.92,3.17l-5.25-2.54c-.64,1.56-1.16,2.78-1.65,4-.68,1.74-1.25,3.54-2,5.23-1,2.14-2.24,4.15-3.2,6.29-1.33,3-2.32,6.09-3.78,9a80.27,80.27,0,0,1-4.39,6.95c-.81,1.26-1.53,2.59-2.45,3.76-5.54,7-10.64,14.18-6.92,23.88a.8.8,0,0,1,.06.37c-.34,3.36,1.39,5.44,4.18,6.9a7.74,7.74,0,0,1,4.12,6.76,5.65,5.65,0,0,0,2.19,4.09,33.36,33.36,0,0,1,3.64,4.73c.86,1.17,1.7,2.35,2.55,3.52-9.55,7.35-20.18,12.74-31.32,17.19C551.5,473.08,550.09,473.55,548.69,474.06Z" transform="translate(-73.66 -133.6)"/><path class="cls-6" d="M584.2,455.34c-.85-1.17-1.69-2.35-2.55-3.52a33.36,33.36,0,0,0-3.64-4.73,5.65,5.65,0,0,1-2.19-4.09,7.74,7.74,0,0,0-4.12-6.76c-2.79-1.46-4.52-3.54-4.18-6.9a.8.8,0,0,0-.06-.37c-3.72-9.7,1.38-16.84,6.92-23.88.92-1.17,1.64-2.5,2.45-3.76a80.27,80.27,0,0,0,4.39-6.95c1.46-2.9,2.45-6,3.78-9,1-2.14,2.21-4.15,3.2-6.29.78-1.69,1.35-3.49,2-5.23.49-1.24,1-2.46,1.65-4l5.25,2.54c-.41-1.46-.43-2.48-.92-3.17-4.23-5.83-4.3-12-2-18.56a208.59,208.59,0,0,1,8.25-20.57,75.49,75.49,0,0,0,3.36-8.77c.78-2.36,1.46-4.66,4.8-4.4,0-1.56,0-2.68,0-3.79,0-2.39-.18-4.76,1.56-6.78a5.91,5.91,0,0,0,.71-2.11,52.42,52.42,0,0,1,9.76-17.64c1.8-2.2,3.38-4.6,5.28-6.7,2.33-2.59,5-4.85,7.33-7.46s4.17-5.28,6.23-8q4.44-5.79,8.87-11.61l1.15-1.56-3.16-.35c.92-2.53,1-5.25,4-6.36.59,1.25,1.22,2.49,1.77,3.76,6,14,8.43,28.82,9.48,43.91.19,2.75.17,5.51.25,8.27-1.45-.17-1.92.89-2.44,1.92q-4.1,8.28-8.24,16.54c-.28.56-.63,1.08-.95,1.62a174.55,174.55,0,0,1,3.92-20.2,13.8,13.8,0,0,0,0-8.05c-3.21,2.51-2.89,6.44-5,10-.7-4.38,1.84-7.65,1.24-11.31a67.65,67.65,0,0,0-4,5.76c-2.68,3.77-4.43,7.78-3.87,12.53,0,.1-.11.22.2-.35-1.63,1.35-3.14,2-3.73,3.17A187.89,187.89,0,0,0,630.13,339a4.48,4.48,0,0,0,.86,4.82c.42.49.79,1,1.61,2.07-4.53-.84-5.6,1.67-6.28,4.72-.79,3.53-1.86,7-2.51,10.57-1.2,6.55-1.93,13.17-.08,19.71,1.21,4.25,1.22,9,4.79,12.36.18.17,0,.7,0,1.27a7.94,7.94,0,0,1-2.12.39c-2.16-.22-3.3.75-3.74,2.78-.16.73-.52,1.42-.64,2.16-.77,4.42-1.54,8.84-2.2,13.28-.19,1.25-.68,2.73,1.32,3.89a34.75,34.75,0,0,0,1.87-3.12,6.06,6.06,0,0,1,6.28-3.86,162.34,162.34,0,0,1-29.7,33.61C594.69,447.79,589.35,451.45,584.2,455.34Z" transform="translate(-73.66 -133.6)"/><path class="cls-5" d="M440.68,349.62c-2.62-.43-3.51-2.58-4.56-4.59-1.62-3.12-2.27-3.4-5.65-2.73-1.34.26-2.72.35-4.07.55-2.06.3-2.66,1.16-1.86,3.09,1.26,3,2.59,6,4.07,8.9a26.65,26.65,0,0,1,3.07,9.21,22,22,0,0,0,1,2.82,6.07,6.07,0,0,1,0,2.72c-4.78-7.91-10.34-15.32-13-24.25-1.88-6.34-3.59-12.74-5.34-19.12a11.55,11.55,0,0,1-.14-1.88c-.26-2.7-.52-5.4-.81-8.37l1.88-.74c-.05-.34,0-.67-.13-.79-2.81-2.5-5.51-5.15-8.51-7.39-2.05-1.53-4.54-2.47-6.7-3.61-3.76,3-3.69,6.79-3.92,10.65l2.81,1.37c-.28.35-.45.76-.7.82a2.6,2.6,0,0,0-2,3.15c.18,1.73.39,3.47.72,5.18.62,3.17,1.38,6.31,2,9.48a10.73,10.73,0,0,1-.16,2.17,12.69,12.69,0,0,0,0,3.32c.49,1.91,1.19,3.64.66,5.81-.3,1.23.94,2.77,1.24,4.22,1.22,5.74,2.92,11.33,3.22,17.3.2,3.91,1.9,7.73,2.93,11.59.19.68.43,1.35.84,2.67l-4-1.75c1.05-2.49,0-4.05-1.31-6.09-3.89-6.24-9.49-10.54-15-15a41,41,0,0,1-3.84-4c-1.34.69-1,3.29-3.58,2.49a10.32,10.32,0,0,0-.41-2.61c-.57-1.43-1.86-2.72-2-4.14s.77-3.08,1.2-4.63a.57.57,0,0,0-.06-.36c-1.86-3.52-.7-7-.06-10.56a42.48,42.48,0,0,0,.19-6.78,21.29,21.29,0,0,1,.71,3.91,5.47,5.47,0,0,0,2.7,5.08,14.24,14.24,0,0,0,1.34-1.94c2-4.21,3.92-8.42,5.8-12.66,1.08-2.43,1.49-4.85-1.52-6.87l5.41-.79c-4.45-4.74-10.59-5.84-16.7-3.34-2.16-2.51-2.52-2.63-4.55-1.5-2.34,1.32-2.77,2.6-1.8,5.68l-4.07.93c.44-2.37,3.49-3.76,1.54-6.24-4.2,2.12-4.87,3.22-4.09,7.73.46,2.66-1.68,3.55-3.2,5.05a7.33,7.33,0,0,1,0-1.24c.3-1.84,1.35-4,.75-5.41s-1.95-2.87-2.69-4.51c-.82-1.79-2-3.44-2.72-5.25-.53-1.29-1-2.26-2.6-2h0c.06-1.61.14-3.25-2.27-3V299c2.28-.65,3.07-1.95,2.78-4.25s-1.84-4.46-.09-6.77c.17-.23-.1-1-.36-1.34-1.32-2-.84-4.08-.56-6.17.11-.86.65-1.95.31-2.53-1.68-2.8-1.48-6-2.17-9a4.56,4.56,0,0,0-3-3.57c-1.65-.56-3.28-1.2-5-1.66a3.58,3.58,0,0,0-4.69,4.06,27,27,0,0,0,.67,2.64l-2.27,1.4c.1-4.64.09-9.27-1.43-13.76a12.73,12.73,0,0,0-4-5.88l-3,4.37c.18-2.08.26-3.53.43-5,.35-2.94-.51-5.09-2.54-6.18,2-6.46,4-13,7.85-18.59,5.6-8.17,11.45-16.17,17.32-24.15s12.84-14.76,20-21.48c.9-.85,1.92-1.58,2.89-2.36.13.61.58,1.41.35,1.81-1.56,2.63-1.13,5.05.64,7.3,1.16,1.47,2.49,2.81,3.77,4.2,2.23,2.43,2,3-.52,4.92a17.07,17.07,0,0,0-4.3,4.59c-3.66,6.12-2.67,12.18.77,18.08.95,1.63,1.92,3.24,2.73,4.94,4.54,9.5,8.93,19.08,13.57,28.53,6.71,13.66,13.6,27.23,20.38,40.85.56,1.11.93,2.31,1.38,3.47l-5-.24c-1.2-11.48-9.18-27.62-14.81-29.92-1.47,2.57-2.62,5.37-2.33,8.31.24,2.39.13,4.4-1.25,6.41a4.92,4.92,0,0,0,0,5.62,28.87,28.87,0,0,1,1.53,3.77l-2.46.49c-1.37-1.86-1.94-2.19-3.2-1.94-2.59.51-4.82,4.05-4.43,7.26,4.23.88,8.23-.88,12.35-1.28a29.58,29.58,0,0,0,5.79.68,3.81,3.81,0,0,1,4,2.34,10.14,10.14,0,0,0,2.38.72,26.68,26.68,0,0,0,5.58,0c3.07-.47,4.53,1,5.59,3.6.92,2.29,2.22,4.41,3.27,6.65s1.89,4.26,2.83,6.4l.75.76c4.67,8.6,9.37,17.19,14,25.8C438.52,345.13,439.57,347.39,440.68,349.62Z" transform="translate(-73.66 -133.6)"/><path class="cls-7" d="M325.93,245.41c2,1.09,2.89,3.24,2.54,6.18-.17,1.45-.25,2.9-.43,5l3-4.37a12.73,12.73,0,0,1,4,5.88c1.52,4.49,1.53,9.12,1.43,13.76v3l.16,2.37h.45l.15-2.38c1.61.14,1.81,1.47,2.27,2.62a25.36,25.36,0,0,0,3.53,6.78l1.77-3.28c2.2.24,2.88,1.77,3.49,3.27,1.92,4.73,3.53,9.53,2.53,14.78v2.26c-.05,1.61-.14,3.25,2.27,3h0l-1.51,3v1.51c-.57,2.05.87,2.91,2.27,3.78v2.26a12,12,0,0,0,1.31,2.91c3,3.66,3.08,6.13.42,10.13a26.46,26.46,0,0,0-1.59,3.25c-.94-.8-.94-.8-1-6.12l-1.41,2.86c-3.94-2.69-2.63-7.19-4.29-10.44-1.56-.44-1.95.69-1.65,1.65,1.73,5.6-.26,10.87-1.35,16.35,1,.12,2.17-.08,2.71.43s.57,1.8.89,2.71c1.74,5-.25,9.89-.47,14.83,0,.84-.13,1.67-.21,2.64,3.42,0,2.37-4.21,5.21-4.69l1.62,2c.93-1.84.12-4.79,3.49-3.9a7.34,7.34,0,0,0-.44-1.66c-2.41-3.67-1.33-7.46-.1-11.08.86-2.55,1.37-5.29,3.7-7.25,3-2.51,4.53-2.38,6.34,1.15.28.54.48,1.13.7,1.64l3-1.87a21.56,21.56,0,0,1,.51,2.6c.27,4.87.82,9.75.66,14.61-.14,4.33-1.06,8.64-1.66,13a17.64,17.64,0,0,1-.48,1.95l3,1.33c-.2,4.35.42,8.67-.51,13.07a61.4,61.4,0,0,0-.91,10.44c-.09,2.44-1.26,4.8-.23,7.39.27.66-1,2.13-1.78,2.94a17.23,17.23,0,0,1-3.59,2.62,5.38,5.38,0,0,1-2.45.6c-2.1.08-4.21,0-6.31,0v.75H369c3.77,13.62,4.41,19,3.18,26.64l3,.94a2.37,2.37,0,0,1,.37.62c.57,2.56,1.2,5.11,1.63,7.69a24.9,24.9,0,0,1,0,4c-1.29-1-2,0-2.8.78q-6.09,6.31-12.18,12.63c-.43.44-.93.81-1.4,1.21-1.8-.23-2-1.25-1.2-2.63s2-2.39,2.33-3.75c.9-3.31,1.43-6.72,2-9.6-1-2.46-1.83-4.6-2.73-6.72a15.91,15.91,0,0,0-1.82-3.67,8.57,8.57,0,0,1-1.87-6.26c-6.22-7.35-12.31-14.79-17.38-23a180.88,180.88,0,0,1-20.92-48.9,16.14,16.14,0,0,1-.27-2.6c.27-1.54.73-2.65,2.72-2a14.79,14.79,0,0,0,3.13.45l5.55,14.17-.17.32.17-.32,1.5.36c-.75-2.69-1-5.36-2.19-7.55-3.16-5.92-3.93-12.2-3.87-18.74a42,42,0,0,0-.55-5.57c-.54-4.07-1.09-8.15-1.69-12.22-.8-5.42-1.64-10.84-2.48-16.26-.41-2.7-1-5.39-1.26-8.11-.38-4.11-.57-8.23-.78-12.34-.08-1.43-.52-2.44-2.08-2.64A145.42,145.42,0,0,1,325.93,245.41Zm6.7,118.25c-3.09,1-1,2.73-.76,4.21Zm-5.08-91.9.32-.16v-7.85l-.32,0Zm.68-11.39c.25-.44.6-.81.52-1-.16-.32-.56-.52-.86-.77-.12.31-.35.63-.32.92S327.93,260,328.23,260.37Zm27.09,62.14-.57-.12V324l.39,0Zm-9.36,36-.63-.27c-.09.21-.3.47-.24.62s.39.19.6.29Zm.78-45.3c-.21-.09-.47-.3-.62-.24s-.19.38-.29.59c.21.1.47.31.62.25S346.65,313.38,346.74,313.17Z" transform="translate(-73.66 -133.6)"/><path class="cls-2" d="M194.46,596.55H193c-.18-.17-.33-.44-.54-.5-4.68-1.32-9.37-2.65-14.08-3.89-.33-.09-.83.4-1.25.62l-4.53-.76c-.32-.48-.56-1.28-1-1.38-1.66-.41-3.37-.6-5.07-.87l-.84,0c.84-.91,1.63-1.88,2.52-2.74q25.75-24.9,51.54-49.76,19-18.32,38.07-36.55,5.28-5.07,10.58-10.12c.79,4.92,1.44,9.86,2.41,14.74a44.06,44.06,0,0,0,2.36,7.47c2.92,7.48,4.52,15.33,6.66,23a30.35,30.35,0,0,0,2.26,5.52c1,1.93.9,3.42-.69,5.07a30,30,0,0,0-3.1,4.59,12,12,0,0,1-1.21,1.85c-1.67,1.71-3.37,3.32-4,5.77a5.5,5.5,0,0,1-1.9,2.24c-2.36,2-4.78,4-7.17,6-.1.08-.23.17-.25.28-.73,3.34-3.28,5.58-5,8.29v1.51h-.75l-1.51.76h-.75a9,9,0,0,0-2.18.38,23.77,23.77,0,0,1-15.31,1.27,8.77,8.77,0,0,0-2.15.18V586c-.25.76-.51,1.51-.76,2.27l-.75,3.77L233,594.29l-.75,1.51-.75.74,0,0-1.49,0c-1.27-2.79-1.88-3.32-4.38-3a29.38,29.38,0,0,0-6.15,1.5,10.06,10.06,0,0,1-5.49.36,39.22,39.22,0,0,0-6.33-.14c-2.71,0-5.44.14-8.14-.07-1.5-.12-2.75-.25-3.5,1.31Z" transform="translate(-73.66 -133.6)"/><path class="cls-8" d="M649.81,237.11c-2.92.21-4.77,2.11-6.19,4.31-2.51,3.89-4.73,8-7.13,11.94-2.25,3.75-4.56,7.46-6.87,11.17-1.64,2.62-2.72,5.67-5.69,7.29a2.11,2.11,0,0,0-1,1.49c.1,2.75-1.77,4.62-2.79,6.87a29.84,29.84,0,0,0-1.37,4.49l-5.17,6.95c-1.51-1.41-3-.68-4.5,1-3.45,3.83-6.84,7.66-8.29,12.81a16.65,16.65,0,0,1-2.26,4.57c-.35-2.17.66-4,1.3-5.89.43-1.31,1.16-2.54,1.46-3.87,1.09-5,4.31-8.34,8.22-11.22a21.12,21.12,0,0,0,4.48-4,8.61,8.61,0,0,0-2.33.05,10.44,10.44,0,0,0-1.91,1.17c-4.18,2.34-5.43,1.93-7.77-2.18a18.4,18.4,0,0,0-3-3.81,13.68,13.68,0,0,1-4.3-8.07c-.16-1.22-.88-2.36-1.1-3.58-.43-2.4-1.91-3-4.08-2.79.88-1.77,1.74-3.54,2.65-5.3,2.7-5.19,5.53-10.33,8.1-15.59,1.46-3,3.77-5.67,3.6-9.29.17-.18.44-.34.48-.55,1.88-9,3.81-17.92,5.57-26.9.68-3.47.43-3.58-3-4.34a2.16,2.16,0,0,0-2.27-2.24l-1.5-1.48-9.57-8.62c1.75-1,3-1.54,4.09-2.27s2.51-1.31,2.81-2.28c1.14-3.61,4-7.1,1.45-11.23-.15-.25.25-.84.4-1.27a158,158,0,0,1,25.85,26.74A178.13,178.13,0,0,1,644,225C646.11,228.92,647.88,233.06,649.81,237.11Z" transform="translate(-73.66 -133.6)"/><path class="cls-9" d="M629.31,410a6.06,6.06,0,0,0-6.28,3.86,34.75,34.75,0,0,1-1.87,3.12c-2-1.16-1.51-2.64-1.32-3.89.66-4.44,1.43-8.86,2.2-13.28.12-.74.48-1.43.64-2.16.44-2,1.58-3,3.74-2.78a7.94,7.94,0,0,0,2.12-.39c0-.57.16-1.1,0-1.27-3.57-3.36-3.58-8.11-4.79-12.36-1.85-6.54-1.12-13.16.08-19.71.65-3.56,1.72-7,2.51-10.57.68-3.05,1.75-5.56,6.28-4.72-.82-1.06-1.19-1.58-1.61-2.07a4.48,4.48,0,0,1-.86-4.82,187.89,187.89,0,0,1,10.81-26.8c.59-1.15,2.1-1.82,3.73-3.17-.31.57-.19.45-.2.35-.56-4.75,1.19-8.76,3.87-12.53a67.65,67.65,0,0,1,4-5.76c.6,3.66-1.94,6.93-1.24,11.31,2.08-3.58,1.76-7.51,5-10a13.8,13.8,0,0,1,0,8.05,174.55,174.55,0,0,0-3.92,20.2c.32-.54.67-1.06.95-1.62q4.14-8.26,8.24-16.54c.52-1,1-2.09,2.44-1.92l-.3,10.57c-.49.43-1.46,1-1.39,1.26.16.65.83,1.18,1.29,1.76l-2,18.28a1,1,0,0,0-.13.67l-.36,3-.33.95-.39,2.82-.35,1-.48,2.8c-.1.28-.21.57-.32.85l-.33,2.1c-3.07,2.21-3.41,5.7-4.09,9-.08.42.85,1.05,1.32,1.59-.16.53-.31,1.07-.47,1.61a.82.82,0,0,0-.27.63c-.07.27-.13.54-.19.81l-.59,1.4c-.06.28-.13.55-.2.83-1.31,0-2.11.46-2,1.91.05,1,.06,1.95.1,2.92-.9,2.32-1.69,4.69-2.71,7-2.13,4.66-4.26,9.32-6.62,13.86-1.4,2.68-3.24,5.13-4.89,7.69l-2.26.74,1.12,1.65-.79,1.32-.52.86Zm2.33-10.86c.18-1,.38-2,.49-3,0-.06-.73-.4-.93-.28C629.78,396.74,630,397.85,631.64,399.17Z" transform="translate(-73.66 -133.6)"/><path class="cls-5" d="M290.35,551.12c-3.29-5.79-5-12.17-7-18.45-1.68-5.23-3.43-10.43-5.12-15.64-.74-2.26-1.49-4.51-2.08-6.81-1.56-6-3-12.06-4.55-18.09-.3-1.21-.71-2.39-1.06-3.59q10.83-10.44,21.67-20.87c1.62-1.56,3.33-3,5-4.52-.57,2.72-.64,5.31,1.22,7.7a5.8,5.8,0,0,1,.93,2.83,7.78,7.78,0,0,0,2.83,5.15,5.27,5.27,0,0,1,1.87,3.91c.16,2.83,1.25,3.6,5.25,4-.25-1.54-.5-2.94-.7-4.34s-1.51-2.66.07-4.48c5.48,9.62,9.87,19.3,12.43,30.51L317.54,506a8.12,8.12,0,0,0-.86,1.06c-2.69,5.43-3.49,11.43-5.05,17.2-.39,1.44.41,2.1,1.85,2.05Z" transform="translate(-73.66 -133.6)"/><path class="cls-10" d="M422.56,316.38c-.94-2.14-1.83-4.29-2.83-6.4s-2.35-4.36-3.27-6.65c-1.06-2.6-2.52-4.07-5.59-3.6a26.68,26.68,0,0,1-5.58,0,10.14,10.14,0,0,1-2.38-.72l10.47-.52-.65-1c-.45-1.16-.82-2.36-1.38-3.47-6.78-13.62-13.67-27.19-20.38-40.85-4.64-9.45-9-19-13.57-28.53-.81-1.7-1.78-3.31-2.73-4.94-3.44-5.9-4.43-12-.77-18.08a17.07,17.07,0,0,1,4.3-4.59c2.56-1.95,2.75-2.49.52-4.92-1.28-1.39-2.61-2.73-3.77-4.2-1.77-2.25-2.2-4.67-.64-7.3.23-.4-.22-1.2-.35-1.81,2.13-1.91,4.13-4,6.42-5.7,7.33-5.43,14.75-10.72,22.17-16a25,25,0,0,1,3.3-1.69,10.8,10.8,0,0,1-1.6,2.76c-6.41,5.77-12.91,11.39-17.78,18.67-1.47,2.19-3.55,4-4.64,6.72,1.27,1.64,2.49,3.35,3.85,4.94,2.61,3.05,2.79,3.48,2.42,7.49a16.63,16.63,0,0,0,2.1.16,8.89,8.89,0,0,0,1.68-.32c.11.25.22.5.32.75l-6.65,3.51-2.27.75-.75.75c-1.72.14-2.29,1.19-2.27,2.77,0,1.85,0,3.7,0,5.55-1.31,1.86-1,3.81-.14,5.67,3.5,7.36,7.12,14.67,10.6,22,2.24,4.75,4.3,9.57,6.45,14.35.51,1.13,1,2.27,1.61,3.36,2.94,5.39,5.7,10.89,9,16.07,1.08,1.7-.1,3.57,1.46,5.11,1.37,1.36,2.06,3.4,3.13,5.09,1.47,2.31,3,4.55,4.52,6.85a9.8,9.8,0,0,1,1.12,2.3,46.34,46.34,0,0,0,1.63,5.29c.89,1.86,2.38,3.44,3.28,5.3,2.06,4.25,3.83,8.65,5.94,12.89.47.94,1.83,1.44,2.79,2.14h0a9.05,9.05,0,0,0,1.34,5.75c1.6,2.7,3.08,5.46,4.65,8.17,1.88,3.24,4.34,6.27,5.56,9.75,1,3,2.74,5.49,3.94,8.29,3,6.9,7.92,12.69,10.71,19.67.74,1.86,1.49,3.73,2.4,5.51,2.39,4.68,4.86,9.32,7.32,14,1.82,3.42,3.62,6.85,5.5,10.24s3.78,6.68,5.74,10,4,6.55,6,9.81c1.1,1.79,2.54,3.45,3.28,5.37,1.46,3.77,3.94,6.82,6.1,10.13,2.71,4.17,5.22,8.48,7.77,12.76,1.34,2.26,2.16,5,4,6.77,2,2,1.93,4.68,3.53,6.81,1.26,1.67,2.51,4.69.71,7.31-2.07-3.13-4.07-6.29-6.23-9.34a19.94,19.94,0,0,0-2.84-2.74c-1-1.49-2-3-3-4.46a15.68,15.68,0,0,0-1.28-3.83c-3.59-5.56-7.47-10.94-10.95-16.56-3.08-5-5.72-10.25-8.64-15.34-3.8-6.61-7.72-13.16-11.53-19.77-2.17-3.78-4.16-7.67-6.35-11.43a49.53,49.53,0,0,0-3.27-4.43c-.29-.39-.76-.74-.88-1.17-1.89-7.41-6.94-13.16-10.21-20.24-.38.95-.59,1.49-.81,2-.15-.13-.43-.28-.41-.37.64-3.68-1.34-6.5-3.08-9.39-1.11-2.23-2.16-4.49-3.35-6.68-4.65-8.61-9.35-17.2-14-25.8Z" transform="translate(-73.66 -133.6)"/><path class="cls-7" d="M313.48,526.32c-1.44,0-2.24-.61-1.85-2.05,1.56-5.77,2.36-11.77,5.05-17.2a8.12,8.12,0,0,1,.86-1.06l3.55,2.46c-2.56-11.21-6.95-20.89-12.43-30.51-1.58,1.82-.26,3.14-.07,4.48s.45,2.8.7,4.34c-4-.44-5.09-1.21-5.25-4a5.27,5.27,0,0,0-1.87-3.91,7.78,7.78,0,0,1-2.83-5.15,5.8,5.8,0,0,0-.93-2.83c-1.86-2.39-1.79-5-1.22-7.7,6.79-6.66,13.55-13.34,20.37-20,3.49-3.39,7.08-6.68,10.83-10.22l5.82,4.2c0,5.32,1.92,10,4.78,14.41,2.08,3.2,0,11.26-3.3,13.06a7.53,7.53,0,0,1-2.73.29,11,11,0,0,1,.25,2.69c-.14.82-1,1.59-1,2.34.33,4.85.67,9.72,1.35,14.53.23,1.61,1.37,3.14,2.28,4.6,1.63,2.63,3.4,5.18,5.11,7.76-4.79,5.28-9.55,10.58-14.37,15.83-2.84,3.08-5.74,6.1-8.63,9.12C316.51,523.33,315,524.81,313.48,526.32Zm18.16-65.48c-.08-.22-.12-.54-.26-.61s-.42.13-.63.22c.08.21.12.54.26.6S331.43,460.92,331.64,460.84Z" transform="translate(-73.66 -133.6)"/><path class="cls-5" d="M341,496.84c-1.71-2.58-3.48-5.13-5.11-7.76-.91-1.46-2.05-3-2.28-4.6-.68-4.81-1-9.68-1.35-14.53-.05-.75.83-1.52,1-2.34a11,11,0,0,0-.25-2.69,7.53,7.53,0,0,0,2.73-.29c3.34-1.8,5.38-9.86,3.3-13.06-2.86-4.4-4.75-9.09-4.78-14.41l5.57,3.28,17.8-16.88a8.57,8.57,0,0,0,1.87,6.26,15.91,15.91,0,0,1,1.82,3.67c.9,2.12,1.74,4.26,2.73,6.72-.58,2.88-1.11,6.29-2,9.6-.37,1.36-1.58,2.48-2.33,3.75s-.6,2.4,1.2,2.63l-2.1,2.86,6.54,12a9.76,9.76,0,0,1-1,1.41q-10.95,11.61-21.94,23.19A17.87,17.87,0,0,1,341,496.84Z" transform="translate(-73.66 -133.6)"/><path class="cls-11" d="M449,145l-.77-1.5c-.53-1.26-1.05-2.52-1.58-3.77.6-.52,1.13-1.35,1.8-1.49,5.26-1.1,10.54-2.05,15.81-3.06,9.92-1.91,20-1.52,30-1.5s19.68,1.53,29.38,3.38c4.27.82,8.48,1.94,13,3-.33,1.09-.56,1.88-.8,2.68l-1.5,2.27h0l-1.48.77c-.68-.49-1.3-1.31-2-1.42-4.07-.63-8.16-1.28-12.26-1.55-6.37-.42-12.77-.64-19.15-.75-2.48-.05-5,.54-7.46.64-8.14.31-16.3.32-24.43.87-5.71.38-11.38,1.44-17.06,2.2Z" transform="translate(-73.66 -133.6)"/><path class="cls-12" d="M532.86,145.74l1.48-.77a12.49,12.49,0,0,1-3.86,7.43c-5.16,5.44-10,11.14-15,16.75-.92,1-1.79,2.09-2.66,3.16-3.25,4-3.57,8.68-3.41,13.51l-3.75-2.47c-2.46-1.4-4.89-2.86-7.39-4.17a3.51,3.51,0,0,0-2.2-.22c-2.9.62-5.82,1.24-8.65,2.14a17.68,17.68,0,0,0-3.71,2.25c-2.17-.21-3.46,1.32-4.92,2.5l-2.43.78c2.3-4.57.37-8-2.72-11.43q-11.72-13-23.1-26.23c-.82-1-2.82-2-1.51-4,.48.26,1,.51,1.46.76,2.45,4.58,6.52,7.67,10.21,11.11.25.22.71.21,1.07.3a6.27,6.27,0,0,0,1,1.46c2.94,2.28,5.91,4.51,8.88,6.76a9.25,9.25,0,0,0,1.14.93c4.83,2.84,9.73,5.57,14.5,8.51,3.64,2.24,3.52,2.27,7.16,0,3.8-2.33,7.79-4.34,11.53-6.76,1.47-.95,3.64-1.23,4.21-3.37,1.64-1.11,3.33-2.14,4.91-3.32,2.18-1.63,4.29-3.36,6.43-5A44.21,44.21,0,0,0,532.86,145.74Z" transform="translate(-73.66 -133.6)"/><path class="cls-8" d="M317,278.63c1.56.2,2,1.21,2.08,2.64.21,4.11.4,8.23.78,12.34.26,2.72.85,5.41,1.26,8.11.84,5.42,1.68,10.84,2.48,16.26.6,4.07,1.15,8.15,1.69,12.22a42,42,0,0,1,.55,5.57c-.06,6.54.71,12.82,3.87,18.74,1.16,2.19,1.44,4.86,2.19,7.55l-1.5-.36h0l-5.55-14.17a14.79,14.79,0,0,1-3.13-.45c-2-.67-2.45.44-2.72,2-1.22-6.25-2.72-12.45-3.61-18.74a151.12,151.12,0,0,1-.76-33.81C315.15,290.52,316.2,284.59,317,278.63Z" transform="translate(-73.66 -133.6)"/><path class="cls-13" d="M602.28,174.44c-.15.43-.55,1-.4,1.27,2.51,4.13-.31,7.62-1.45,11.23-.3,1-1.79,1.62-2.81,2.28s-2.34,1.31-4.09,2.27l9.57,8.62-3.46-1-4.87-1.31-1.5-.77c-.44-2.13-2.13-2.16-3.79-2.25-1.49-2.71-.08-4.48,1.94-6.06a4.87,4.87,0,0,1,.93-.65,4.06,4.06,0,0,0,2.42-4.62c4.21-4.09,3.26-5.76.06-10.66-1.92-3-5-5.15-7.33-7.85-.84-.95-1.15-2.36-1.71-3.56Z" transform="translate(-73.66 -133.6)"/><path class="cls-14" d="M458.23,247.62a27,27,0,0,1-1.6-3.73q-4.41-16.66-8.69-33.35c-1.15-4.48-2.2-9-3.3-13.49a20.56,20.56,0,0,1,1.93,3c1.91,4.22,3.72,8.48,5.64,12.91l3.6-1.48h0c-.18,1.8.61,2.52,2.38,2.09.71-.17,1.4-.39,2.11-.6,0,3-2.23,4.26-4.37,5.54-1.65,1-2.63,2.1-2.1,4.23,1.42,5.76,2.92,11.51,3.95,17.34C458.24,242.48,459.87,245,458.23,247.62Z" transform="translate(-73.66 -133.6)"/><path class="cls-14" d="M535.76,206.11C534.85,210.06,534,214,533,218c-.47,1.87-1.13,3.7-1.7,5.55-.16-.18-.46-.35-.47-.55-.35-4.16-1.89-7.69-5.35-10.22a5.39,5.39,0,0,1-.5-.56c-3-3-6-6-9-8.86a4.13,4.13,0,0,0-2.35-.86c-1.48-.14-3,0-5.14,0a18.62,18.62,0,0,0-3.48,6.8l-.08,1.45-.79,0,.15-5.29a1.43,1.43,0,0,0,.51-.06c.28-.86.55-1.72.82-2.58l.25-1.1c.65-1,1.37-1.89,1.93-2.9s.94-2.09,1.48-3.31c3,2.52,5.3,5,8.11,6.74s4.27,5.35,8.34,5.27l.44-2.23c1.11,1.13,2.17,2.31,3.34,3.38.92.85,2,1.57,3,2.36Z" transform="translate(-73.66 -133.6)"/><path class="cls-15" d="M461.1,203.89l1.53-2.25,2.16-3.11c.71-.83,1.38-1.72,2.15-2.49,1-1,2.08-1.89,3.12-2.83,2.81,1.23,6.19,1.19,8.37,3.81l2.34,5.45a20.47,20.47,0,0,1-2.3-1.71c-1.23-1.19-2.35-2.49-3.57-3.81l-4,3.17c-1.58,0-1.54,1.14-1.52,2.24l-.78.72c-1.1,0-2.17,0-2.25,1.53a18.87,18.87,0,0,1-3.05,1.09,6.9,6.9,0,0,1-2.25-.33C461.07,204.88,461.08,204.39,461.1,203.89Z" transform="translate(-73.66 -133.6)"/><path class="cls-16" d="M505.64,183.35l3.75,2.47,7.43,8-4.38,1-5.1.23c-.06-.35-.11-.69-.16-1,0-1,0-2,0-3-.1-3.5-.1-3.5-3.76-3.85,1.75-1.12.5-2.11-.13-3.13Z" transform="translate(-73.66 -133.6)"/><path class="cls-17" d="M507.34,195.06l5.1-.23a9.61,9.61,0,0,0,1.24,2.09c1,1,2.38,1.79,3.29,2.9a6.39,6.39,0,0,0,6.47,2.52l1.07.1,1.46,2.19a4.21,4.21,0,0,1,.16.61l-.44,2.23c-4.07.08-5.6-3.59-8.34-5.27s-5.14-4.22-8.11-6.74c-.54,1.22-.93,2.31-1.48,3.31s-1.28,1.94-1.93,2.9C506.33,199.47,506.83,197.26,507.34,195.06Z" transform="translate(-73.66 -133.6)"/><path class="cls-16" d="M478.43,197c-2.18-2.62-5.56-2.58-8.37-3.81l4.62-5.17.85-.72,0,0,.87-.74h0l2.43-.78.46.68.72,3c-2.47,1.71-1.3,4.07-1.13,6.26-.06.4-.11.8-.17,1.2Z" transform="translate(-73.66 -133.6)"/><path class="cls-15" d="M523.44,202.34a6.39,6.39,0,0,1-6.47-2.52c-.91-1.11-2.26-1.86-3.29-2.9a9.61,9.61,0,0,1-1.24-2.09l4.38-1A12.59,12.59,0,0,1,523.44,202.34Z" transform="translate(-73.66 -133.6)"/><path class="cls-6" d="M655.93,357.17c-.47-.54-1.4-1.17-1.32-1.59.68-3.29,1-6.78,4.09-9Q657.32,351.89,655.93,357.17Z" transform="translate(-73.66 -133.6)"/><path class="cls-18" d="M441.9,186.54a15.17,15.17,0,0,1-3.33-7.44c-.14-.69.83-1.59,1.29-2.39Z" transform="translate(-73.66 -133.6)"/><path class="cls-14" d="M461.1,203.89c0,.5,0,1-.05,1.48l-3,4.54-2.23,1.54h0C456.19,208,458.16,205.58,461.1,203.89Z" transform="translate(-73.66 -133.6)"/><path class="cls-5" d="M276,566.2c-.13-.84-.41-1.44-1.43-.92-.76.38-1.53.72-2.3,1.08l0,0c.2-2.2,1.95-2.6,3.61-3a14.73,14.73,0,0,1,2.9-.07Z" transform="translate(-73.66 -133.6)"/><path class="cls-12" d="M446.66,139.7c.53,1.25,1,2.51,1.58,3.77C445.74,142.53,445.58,142.13,446.66,139.7Z" transform="translate(-73.66 -133.6)"/><path class="cls-6" d="M652.28,367.28c0-1,0-1.95-.1-2.92-.08-1.45.72-1.95,2-1.91Q653.23,364.87,652.28,367.28Z" transform="translate(-73.66 -133.6)"/><path class="cls-6" d="M636.92,398.17l-1.12-1.65,2.26-.74Z" transform="translate(-73.66 -133.6)"/><path class="cls-14" d="M464.79,198.53l-2.16,3.11C462.48,200,463,198.81,464.79,198.53Z" transform="translate(-73.66 -133.6)"/><path class="cls-6" d="M663.43,314.13c-.46-.58-1.13-1.11-1.29-1.76-.07-.29.9-.83,1.39-1.26Z" transform="translate(-73.66 -133.6)"/><path class="cls-18" d="M435.81,164.64c-1.43-.48-1.44-1.27-.49-2.27C435.48,163.13,435.65,163.89,435.81,164.64Z" transform="translate(-73.66 -133.6)"/><path class="cls-14" d="M526,204.63l-1.46-2.19C526.05,202.47,526,203.55,526,204.63Z" transform="translate(-73.66 -133.6)"/><path class="cls-12" d="M534.34,145l1.5-2.27C535.87,143.8,535.89,144.91,534.34,145Z" transform="translate(-73.66 -133.6)"/><path class="cls-18" d="M434.89,160.12c-.95-.33-1.24-.8-.32-1.53C434.68,159.1,434.79,159.61,434.89,160.12Z" transform="translate(-73.66 -133.6)"/><path class="cls-14" d="M536.35,203.86c-.12.59-.23,1.18-.34,1.77C536.12,205,536.23,204.45,536.35,203.86Z" transform="translate(-73.66 -133.6)"/><path class="cls-6" d="M654.41,361.62l.59-1.4Z" transform="translate(-73.66 -133.6)"/><path class="cls-6" d="M660.57,337l.33-.95Z" transform="translate(-73.66 -133.6)"/><path class="cls-6" d="M655.19,359.41a.82.82,0,0,1,.27-.63Z" transform="translate(-73.66 -133.6)"/><path class="cls-6" d="M661.26,333.08a1,1,0,0,1,.13-.67,2.89,2.89,0,0,1,.08.5C661.47,333,661.34,333,661.26,333.08Z" transform="translate(-73.66 -133.6)"/><path class="cls-12" d="M475.53,187.32l-.85.72Z" transform="translate(-73.66 -133.6)"/><path class="cls-12" d="M476.35,186.62l-.87.74Z" transform="translate(-73.66 -133.6)"/><path class="cls-18" d="M437.39,169.89l-.52-.58Z" transform="translate(-73.66 -133.6)"/><path class="cls-18" d="M436.3,168.26c-.05-.19-.13-.37-.16-.55s.07-.18.11-.27a4.17,4.17,0,0,1,.26.57C436.52,168.07,436.37,168.17,436.3,168.26Z" transform="translate(-73.66 -133.6)"/><path class="cls-13" d="M585,160.83l-.76-.59Z" transform="translate(-73.66 -133.6)"/><path class="cls-10" d="M406.73,154.89l-.92.56Z" transform="translate(-73.66 -133.6)"/><path class="cls-10" d="M407.4,154.45a.72.72,0,0,1-.56.39Z" transform="translate(-73.66 -133.6)"/><path class="cls-6" d="M659,344.49l.32-.85Z" transform="translate(-73.66 -133.6)"/><path class="cls-6" d="M659.83,340.84l.35-1Z" transform="translate(-73.66 -133.6)"/><path class="cls-6" d="M635.61,400.35l.52-.86Z" transform="translate(-73.66 -133.6)"/><path class="cls-19" d="M574.39,263.54c2-3.76,4-7.5,5.91-11.28.74-1.45,1.28-3,2-4.47,4-8.75,7.91-17.56,12.07-26.24,2.31-4.81,4.31-9.86,8-13.9,1.3,1.72.75,3.53.36,5.37-.68,3.16-1.27,6.35-2,9.52a37.11,37.11,0,0,1-1.76,6.84c-1.81,4.12-4,8.1-6,12.11-4.36,8.5-8.77,17-13.11,25.47-3,5.92-5.93,11.89-8.93,17.82-.91,1.79-2.18,3.41-2.93,5.25-5.08,12.44-11.15,24.4-17.15,36.41-4.48,9-9.16,17.88-13.77,26.81-3,5.8-6,11.61-9.08,17.36-2,3.65-4.25,7.11-6.08,10.82-2.92,5.95-5.53,12.05-8.36,18.05a15.35,15.35,0,0,0-1.84,8.33,3.77,3.77,0,0,1-.15,1.49c-2.35,3.95-4.75,7.86-7.14,11.78l-.89-.13c-.5-1.57-.9-3.2-1.53-4.72-1.84-4.41-1-8.1,1.58-12.2,5.16-8.3,9.64-17,14.33-25.61a25,25,0,0,0,1.35-3.88l.75-1.49a8,8,0,0,0,3-6.8h0c2,0,2.32-1.69,3-3q6-11.94,12-23.92c5.7-11.39,11.42-22.77,17.07-34.19q5.18-10.45,10.12-21a19,19,0,0,0,.9-4h0c.75-.75,1.76-1.36,2.2-2.26,1.61-3.24,3.06-6.56,4.5-9.88C573.4,266.56,573.85,265,574.39,263.54Z" transform="translate(-73.66 -133.6)"/><path class="cls-18" d="M511.7,407.81a15.35,15.35,0,0,1,1.84-8.33c2.83-6,5.44-12.1,8.36-18.05,1.83-3.71,4.13-7.17,6.08-10.82,3.09-5.75,6.08-11.56,9.08-17.36,4.61-8.93,9.29-17.82,13.77-26.81,6-12,12.07-24,17.15-36.41.75-1.84,2-3.46,2.93-5.25,3-5.93,5.91-11.9,8.93-17.82,4.34-8.51,8.75-17,13.11-25.47,2-4,4.19-8,6-12.11a37.11,37.11,0,0,0,1.76-6.84c.7-3.17,1.29-6.36,2-9.52.39-1.84.94-3.65-.36-5.37.26-1.26.51-2.51.77-3.77.5-.77,1-1.53,1.51-2.29a2.16,2.16,0,0,1,2.27,2.24c-.76,3.26-1.74,6.49-2.23,9.79-.71,4.8-.78,9.7-1.7,14.45a11.21,11.21,0,0,0,.9,7.55c.17,3.62-2.14,6.31-3.6,9.29-2.57,5.26-5.4,10.4-8.1,15.59-.91,1.76-1.77,3.53-2.65,5.3,0,.25,0,.49,0,.74l-2.25,3.79c-.51,1-1,2-1.52,3-1,2-2,4-3,6-.25.51-.5,1-.76,1.51a14.08,14.08,0,0,0-1.09,1.48c-2,3.74-4.08,7.45-6,11.25-2,4-3.85,8.11-5.77,12.17a24.47,24.47,0,0,0-2.18,3c-4.4,8.46-8.62,17-13.14,25.41-6.6,12.23-13.39,24.37-20.13,36.53-4.55,8.2-9.19,16.35-13.74,24.54a29.75,29.75,0,0,0-1.42,3.45c-1.75,2.6-3.47,5.22-5.26,7.78A8.76,8.76,0,0,1,511.7,407.81Z" transform="translate(-73.66 -133.6)"/><path class="cls-12" d="M470.41,295.23l-.12-1.54c1-1,.25-1.29-.66-1.48l-.17-1.52c1.06-1,.34-1.3-.61-1.5-.05-.5-.11-1-.17-1.5a27.36,27.36,0,0,0-.05-3.51c-1.06-7.53-2.13-15.06-3.3-22.58-1.1-7-2.81-14-3.35-21s-.69-14,.65-21c.53-2.74,1.28-5.63,4-6.95s5.62-1.85,8.37-2.93c4-1.56,7.21-.19,7.84,5.17a40,40,0,0,1-.41,12c-1.68,8.83-4.13,17.51-5.81,26.34a185,185,0,0,0-2.59,20c-.57,7.24-.58,14.52-.86,21.78a9.1,9.1,0,0,1-.34,1.58Z" transform="translate(-73.66 -133.6)"/><path class="cls-16" d="M489.13,366.13c-.5-2.18-1-4.37-1.52-6.54-1.51-5.91-3-11.83-4.62-17.72-2.59-9.52-5.28-19-7.89-28.53a26.46,26.46,0,0,1-.47-2.94c3.22.19,5.47-1.64,7.62-3.66l3-1a3.84,3.84,0,0,0,2.11,3.95,3.59,3.59,0,0,1,1.69,3.7,15.94,15.94,0,0,1-1.6,1.48c-2.51,1.8-5.06,3.57-7.59,5.35-.95.66-1.89,1.33-.88,2.73l8.46-4.46a27.12,27.12,0,0,1,2.27,3.73,22.16,22.16,0,0,1,.86,4q-3.85,2.68-7.72,5.35c-1,.68-1.76,1.4-.64,3,2.4-1.47,4.74-2.86,7-4.33,3.69-2.35,7.35-4.74,11-7.11l.92.16c-.15.73-.32,1.46-.43,2.2-.58,3.74-2.54,7.33-1.23,11.27l-1.22.21-1-1.92c-4.12,2.88-8,5.57-11.81,8.32-.22.16,0,.88,0,2.13l12.66-7.94c-.17,1.11-.4,2.21-.5,3.32-.3,3.18-2.21,6.19-1,9.52,0,.43-.11.86-.16,1.3l-1.78.35c-2.59-1.11-5.15.35-5.92,3.79l5.66-3.13a17.54,17.54,0,0,1-.51,4.39,21.73,21.73,0,0,0-1.05,8.41,2.85,2.85,0,0,0-.14.63Z" transform="translate(-73.66 -133.6)"/><path class="cls-11" d="M470.41,295.23l2.39,1.31a9.1,9.1,0,0,0,.34-1.58c.28-7.26.29-14.54.86-21.78a185,185,0,0,1,2.59-20c1.68-8.83,4.13-17.51,5.81-26.34a40,40,0,0,0,.41-12c-.63-5.36-3.86-6.73-7.84-5.17-2.75,1.08-5.73,1.63-8.37,2.93s-3.44,4.21-4,6.95c-1.34,7-1.17,14.05-.65,21s2.25,14,3.35,21c1.17,7.52,2.24,15,3.3,22.58a27.36,27.36,0,0,1,.05,3.51,117.75,117.75,0,0,1-5.33-20.38l-.48-.75c0-.53,0-1.06,0-1.6.87-1,.11-1.27-.73-1.45L462,262c.95-1.06.17-1.29-.7-1.48-.58-2.51-1.15-5-1.73-7.53,1.22-2.52,1-3.12-1.26-3.8l-.09-1.54c1.64-2.61,0-5.14-.43-7.57-1-5.83-2.53-11.58-3.95-17.34-.53-2.13.45-3.24,2.1-4.23,2.14-1.28,4.38-2.53,4.37-5.54h0c3.06-.49,3.3-.73,3.74-3.78.25,0,.5,0,.75-.05,2.14-.74,3.17-2.43,3.82-4.45h0c1.46-.14,3.26.21,4.3-.52,2.2-1.53,3.62-.54,5.29.66,1.49,1.05,3.09,2,4.63,2.91l2.49,8.3q-.41,5.66-.82,11.31-1.52,6.9-3,13.79l-.43,1.81a23.51,23.51,0,0,0-.95,3.21c-1.55,10-3.33,20-4.47,30.06-.77,6.81-.63,13.73-.9,20.6-.2,1.44-.41,2.88-.61,4.33l-.69,5c-.83-2.52-1.71-5-2.47-7.56A26.16,26.16,0,0,1,470.41,295.23Z" transform="translate(-73.66 -133.6)"/><path class="cls-8" d="M510.18,466.67c1.8-2.62.55-5.64-.71-7.31-1.6-2.13-1.51-4.85-3.53-6.81-1.81-1.76-2.63-4.51-4-6.77-2.55-4.28-5.06-8.59-7.77-12.76-2.16-3.31-4.64-6.36-6.1-10.13-.74-1.92-2.18-3.58-3.28-5.37-2-3.26-4.06-6.51-6-9.81s-3.87-6.63-5.74-10-3.68-6.82-5.5-10.24c-2.46-4.64-4.93-9.28-7.32-14-.91-1.78-1.66-3.65-2.4-5.51-2.79-7-7.75-12.77-10.71-19.67-1.2-2.8-2.9-5.33-3.94-8.29-1.22-3.48-3.68-6.51-5.56-9.75-1.57-2.71-3.05-5.47-4.65-8.17a9.05,9.05,0,0,1-1.34-5.75c.63.34,1.59.51,1.86,1,3.34,6.41,6.54,12.89,9.84,19.32,3,5.78,5.88,11.58,9,17.27q10.5,19,21.21,37.9c4.07,7.17,8.22,14.3,12.56,21.3,6.34,10.22,12.88,20.3,19.32,30.45.86,1.35,1.64,2.75,2.46,4.12,1.08,3.31,2.13,6.63,3.28,9.92.11.32.82.44,1.25.65,0,.5,0,1,0,1.5v.77c.21.3.58.59.61.9.21,2.8.36,5.61.54,8.6C511.42,469.91,511.28,467.79,510.18,466.67Z" transform="translate(-73.66 -133.6)"/><path class="cls-8" d="M431.63,316.38c-1-.7-2.32-1.2-2.79-2.14-2.11-4.24-3.88-8.64-5.94-12.89-.9-1.86-2.39-3.44-3.28-5.3a46.34,46.34,0,0,1-1.63-5.29,9.8,9.8,0,0,0-1.12-2.3c-1.48-2.3-3.05-4.54-4.52-6.85-1.07-1.69-1.76-3.73-3.13-5.09-1.56-1.54-.38-3.41-1.46-5.11-3.28-5.18-6-10.68-9-16.07-.6-1.09-1.1-2.23-1.61-3.36-2.15-4.78-4.21-9.6-6.45-14.35-3.48-7.37-7.1-14.68-10.6-22-.88-1.86-1.17-3.81.14-5.67H381c-.07,1.63.3,2.91,2.26,3,.77,1.27,1.63,2.5,2.27,3.83,2.87,6,5.77,11.91,8.45,18,1.65,3.73,2.94,7.62,4.39,11.44.14,1.18-.52,2.77,1.51,3,3.75,7.48,7.51,14.95,11.21,22.46a16.76,16.76,0,0,1,.87,3.2l.76.76c4.14,7.93,8.36,15.83,12.41,23.81,2,3.88,3.71,7.88,5.36,11.9A29.23,29.23,0,0,1,431.63,316.38Z" transform="translate(-73.66 -133.6)"/><path class="cls-3" d="M376.49,311.11c6.11-2.5,12.25-1.4,16.7,3.34l-5.41.79c3,2,2.6,4.44,1.52,6.87-1.88,4.24-3.83,8.45-5.8,12.66a14.24,14.24,0,0,1-1.34,1.94,5.47,5.47,0,0,1-2.7-5.08,21.29,21.29,0,0,0-.71-3.91l-.75-3,1.37-.95L378,322.44c-.26-2.27-.51-4.53-.76-6.8,1.15-1.2.21-1.36-.76-1.51C376.48,313.12,376.48,312.12,376.49,311.11Zm4.05,3.61c2.83,3,3.3,2.92,4.07-.55Z" transform="translate(-73.66 -133.6)"/><path class="cls-13" d="M498.09,450.13c1,1.49,2,3,3,4.46a30,30,0,0,1,0,4.74c-.71,4.94-3.7,8-8.33,8-3.82,0-7.66-1.68-9.21-7.24-1.15-4.11.32-7.18,3.23-9.64a8.05,8.05,0,0,1,9.14-1.11C496.66,449.68,497.39,449.88,498.09,450.13Zm-4,13.83a7.09,7.09,0,0,0,4.71-7.57c-.52-3-3.12-4.92-6.64-4.82s-5,1.5-5.36,5.06l3.35.66v.62l-4.06,1c.46,2.88,1.81,4.58,4.5,5.29l2-2.35Z" transform="translate(-73.66 -133.6)"/><path class="cls-13" d="M520,314.13a11.3,11.3,0,0,0-.35,5.79c.32,1.49-.61,3.24-1,4.88l-.83-.06c-.55-3.92-1.06-7.85-1.64-11.77-.44-2.89-1-5.77-1.47-8.66-.26-2.77-.51-5.54-.77-8.31,0-.32-.05-.63-.08-.94-.09-.76-.19-1.51-.28-2.27l.79-.79c.3-.94.61-1.88.91-2.83.28.39.72.75.8,1.18.35,1.82.43,3.7.91,5.47.58,2.16,0,5,3,5.62l-2.08,3,4.36.61-.75,2.28-2.38.13v.45l2.38.16c-.25,1.25-.51,2.5-.77,3.76C519.13,312.17,518.75,312.89,520,314.13Z" transform="translate(-73.66 -133.6)"/><path class="cls-16" d="M473.45,306.09l.69-5c.2-1.45.41-2.89.61-4.33,2-.17,3.83.21,4.35,2.49.44,1.92.62,3.89.91,5.84l-5.21,3.7A2,2,0,0,1,473.45,306.09Z" transform="translate(-73.66 -133.6)"/><path class="cls-16" d="M510.05,306.46q-1.86,7.59-3.71,15.19l-2.17.07-.07-.07-1.16-3.42,3.61-10.76Z" transform="translate(-73.66 -133.6)"/><path class="cls-16" d="M510.05,306.46l-3.5,1-.18-.16c-.52-1.07-1-2.14-1.62-3.37a7.49,7.49,0,0,0,.58-1.12c1.06-3.05,4-5.42,3.33-9.08l1.42-.9c1.12,3.73-1.57,6.76-2.3,10.37l3.15.35C510.64,304.52,510.34,305.49,510.05,306.46Z" transform="translate(-73.66 -133.6)"/><path class="cls-16" d="M510.93,303.56l-3.15-.35c.73-3.61,3.42-6.64,2.3-10.36a4.34,4.34,0,0,1,.14-.6l3.38.54c.1.76.2,1.51.29,2.27l-.63.94C512.48,298.52,511.71,301,510.93,303.56Z" transform="translate(-73.66 -133.6)"/><path class="cls-16" d="M499.54,336.74c-1.31-3.94.65-7.53,1.23-11.27.11-.74.28-1.47.43-2.21l1.37-.91,1.53-.7.07.07c-.16,1-.28,1.95-.48,2.91-.33,1.54-.72,3.06-1.08,4.59-.25.76-.5,1.52-.74,2.28l-.74,2.28-.8,3Z" transform="translate(-73.66 -133.6)"/><path class="cls-16" d="M494.65,352l1.78-.35a16.22,16.22,0,0,1,0,2.61c-.41,2.56-.79,5.15-1.43,7.66-.34,1.32-.09,3.18-2.14,3.54a21.73,21.73,0,0,1,1.05-8.41,17.54,17.54,0,0,0,.51-4.39C494.47,352.47,494.56,352.25,494.65,352Z" transform="translate(-73.66 -133.6)"/><path class="cls-16" d="M499.54,336.74l.79,0c-.51,2.12-1.08,4.22-1.51,6.35a49.26,49.26,0,0,0-.72,5.12c-.09,1.07-.18,2-1.51,2.14-1.2-3.33.71-6.34,1-9.52.1-1.11.33-2.21.5-3.32.08-.19.15-.39.22-.59Z" transform="translate(-73.66 -133.6)"/><path class="cls-5" d="M520.75,354.15c.47.34,1.39.78,1.34,1-.65,2.63,2.41,4.72,1,7.4-.09.18-.4.24-.86.51-1-1.76-1.11-4.31-3.54-5l.53-1.6C521.45,356.8,521,355.41,520.75,354.15Z" transform="translate(-73.66 -133.6)"/><path class="cls-16" d="M474.8,308.81l5.21-3.7,2.12-.12.12,1.75c-2.15,2-4.4,3.85-7.62,3.66C474.69,309.87,474.74,309.34,474.8,308.81Z" transform="translate(-73.66 -133.6)"/><path class="cls-10" d="M512.44,458.36c-.43-.21-1.14-.33-1.25-.65-1.15-3.29-2.2-6.61-3.28-9.92C511.81,450.29,511.89,454.42,512.44,458.36Z" transform="translate(-73.66 -133.6)"/><path class="cls-16" d="M489.13,366.13h3.56c.13,2,.49,4-1.2,5.92C489.28,370.59,489.77,368.11,489.13,366.13Z" transform="translate(-73.66 -133.6)"/><path class="cls-16" d="M502.61,329.22c.36-1.53.75-3.05,1.08-4.59.2-1,.32-1.94.48-2.91l2.17-.07C506,324.6,505.4,327.46,502.61,329.22Z" transform="translate(-73.66 -133.6)"/><path class="cls-4" d="M529.34,413.83c.35-3.16-3-6.12-.14-9.8C530.15,407.51,530.57,410.62,529.34,413.83Z" transform="translate(-73.66 -133.6)"/><path class="cls-4" d="M520.75,352.64c0-1.62,0-3.26.14-4.87,0-.36.83-.65,1.27-1,.22.51.76,1.13.62,1.5-.56,1.49-1.33,2.9-2,4.34Z" transform="translate(-73.66 -133.6)"/><path class="cls-5" d="M376.48,314.13c1,.15,1.91.31.76,1.51-1.37-.18-2.88.42-4.13-1.31Z" transform="translate(-73.66 -133.6)"/><path class="cls-5" d="M402.49,316.94c2-1.74,3.87-1.31,6.15-1.09C406.64,317.59,404.76,317.16,402.49,316.94Z" transform="translate(-73.66 -133.6)"/><path class="cls-14" d="M458.32,249.16c2.29.68,2.48,1.28,1.26,3.8Z" transform="translate(-73.66 -133.6)"/><path class="cls-4" d="M520.75,354.15c.25,1.26.7,2.65-1.51,2.27.33-1.33-.92-3.29,1.51-3.78h0Z" transform="translate(-73.66 -133.6)"/><path class="cls-7" d="M354.15,339.39v-3.23c1.8,1,.93,2.19.94,3.19Z" transform="translate(-73.66 -133.6)"/><path class="cls-4" d="M383.28,212.94c-2-.11-2.33-1.39-2.26-3C382.84,210.13,383,211.58,383.28,212.94Z" transform="translate(-73.66 -133.6)"/><path class="cls-4" d="M529,403.3a15.24,15.24,0,0,1-1.21-2.14c0-.13.45-.43.69-.65a6,6,0,0,1,1,1.25C529.57,402,529.26,402.42,529,403.3Z" transform="translate(-73.66 -133.6)"/><path class="cls-4" d="M399.9,249.19c-2-.25-1.37-1.84-1.51-3C399.76,246.74,400,247.89,399.9,249.19Z" transform="translate(-73.66 -133.6)"/><path class="cls-5" d="M378,322.44l1.37,1.31-1.37.95Z" transform="translate(-73.66 -133.6)"/><path class="cls-5" d="M353.83,314.88v-2.26l1.37,1.31Z" transform="translate(-73.66 -133.6)"/><path class="cls-16" d="M501.13,333.78l.74-2.28C503.11,332.74,502.7,333.45,501.13,333.78Z" transform="translate(-73.66 -133.6)"/><path class="cls-8" d="M520,373.05l-.75,1.49-.42-1.83Z" transform="translate(-73.66 -133.6)"/><path class="cls-5" d="M351.56,308.84v-1.51l1.18.58Z" transform="translate(-73.66 -133.6)"/><path class="cls-11" d="M468.85,289.19c.95.2,1.67.49.61,1.5C469.26,290.19,469.06,289.69,468.85,289.19Z" transform="translate(-73.66 -133.6)"/><path class="cls-11" d="M469.63,292.21c.91.19,1.64.46.66,1.48Z" transform="translate(-73.66 -133.6)"/><path class="cls-5" d="M433.62,372.08c-.1.22-.14.54-.29.6s-.41-.15-.62-.24c.09-.21.14-.53.29-.59S433.4,372,433.62,372.08Z" transform="translate(-73.66 -133.6)"/><path class="cls-5" d="M523,366.25l-1.17-.92.25-.25.92,1.17Z" transform="translate(-73.66 -133.6)"/><path class="cls-14" d="M461.31,260.49c.87.19,1.65.42.7,1.48Z" transform="translate(-73.66 -133.6)"/><path class="cls-14" d="M462.1,263.51c.84.18,1.6.41.73,1.45C461.78,264.88,461.74,264.3,462.1,263.51Z" transform="translate(-73.66 -133.6)"/><path class="cls-4" d="M528.07,397.77v1.12h-.29v-1.12Z" transform="translate(-73.66 -133.6)"/><path class="cls-5" d="M380.07,358.81c-.09,0-.25.1-.27.07a.76.76,0,0,1-.11-.31c.09,0,.25-.1.27-.07A.82.82,0,0,1,380.07,358.81Z" transform="translate(-73.66 -133.6)"/><path class="cls-14" d="M462.87,266.56l.48.75Z" transform="translate(-73.66 -133.6)"/><path class="cls-10" d="M412.74,275.61l-.76-.76Z" transform="translate(-73.66 -133.6)"/><path class="cls-8" d="M513.26,296l.63-.94c0,.31.06.62.08.94Z" transform="translate(-73.66 -133.6)"/><path class="cls-10" d="M512.45,460.63v0Z" transform="translate(-73.66 -133.6)"/><path class="cls-5" d="M236,583.72v-4.21a8.77,8.77,0,0,1,2.15-.18,23.77,23.77,0,0,0,15.31-1.27,9,9,0,0,1,2.18-.38c-.44.51-.78,1.29-1.33,1.5-3.48,1.28-7,2.42-10.79,2.3C239.11,581.35,239.11,581.46,236,583.72Z" transform="translate(-73.66 -133.6)"/><path class="cls-5" d="M177.08,592.78c.42-.22.92-.71,1.25-.62,4.71,1.24,9.4,2.57,14.08,3.89.21.06.36.33.54.5-.3.22-.66.68-.88.62C187.06,595.74,182.07,594.25,177.08,592.78Z" transform="translate(-73.66 -133.6)"/><path class="cls-5" d="M212.85,600c-3.61,1.34-10.79.09-14.85-2.52Z" transform="translate(-73.66 -133.6)"/><path class="cls-5" d="M166.5,589.77c1.7.27,3.41.46,5.07.87.42.1.66.9,1,1.38-1.68-.28-3.39-.49-5-.91C167.09,591,166.83,590.23,166.5,589.77Z" transform="translate(-73.66 -133.6)"/><path class="cls-5" d="M225.43,600c-1.69.94-1.69.94-3.35.48C223.6,599.68,223.6,599.68,225.43,600Z" transform="translate(-73.66 -133.6)"/><path class="cls-5" d="M268.49,569.38l-1.19,2.19c-.9-1.74,0-2.08,1.16-2.22Z" transform="translate(-73.66 -133.6)"/><path class="cls-5" d="M219.37,601.44a6.87,6.87,0,0,1-1.54.16c-.14,0-.19-.54-.28-.83.31-.09.65-.3.94-.24S218.91,600.94,219.37,601.44Z" transform="translate(-73.66 -133.6)"/><path class="cls-5" d="M235.24,588.25c.25-.76.51-1.51.76-2.27C237.24,587.23,236.85,587.94,235.24,588.25Z" transform="translate(-73.66 -133.6)"/><path class="cls-5" d="M233,594.29l1.51-2.27C234.5,593.12,234.51,594.22,233,594.29Z" transform="translate(-73.66 -133.6)"/><path class="cls-5" d="M280.82,559.86l-1.76-.3h0l.6-1.15,1.28,1.35Z" transform="translate(-73.66 -133.6)"/><path class="cls-5" d="M258.65,576.92v-1.51l1.18.58Z" transform="translate(-73.66 -133.6)"/><path class="cls-5" d="M194.46,596.55H196l-.58,1.18Z" transform="translate(-73.66 -133.6)"/><path class="cls-8" d="M283.35,555.1l-.49.44a2.28,2.28,0,0,1-.24-.53c0-.06.21-.24.26-.22A2.72,2.72,0,0,1,283.35,555.1Z" transform="translate(-73.66 -133.6)"/><path class="cls-5" d="M230,596.55l1.49,0-.89,1Z" transform="translate(-73.66 -133.6)"/><path class="cls-5" d="M263.65,573.36c-.09,0-.26-.07-.26-.1a.9.9,0,0,1,.09-.32c.1,0,.27.06.27.1A1.07,1.07,0,0,1,263.65,573.36Z" transform="translate(-73.66 -133.6)"/><path class="cls-5" d="M256.39,577.68l1.51-.76Z" transform="translate(-73.66 -133.6)"/><path class="cls-8" d="M285.09,552.75l.18-.31-.17.32Z" transform="translate(-73.66 -133.6)"/><path class="cls-8" d="M285.1,552.76l-.18.31c.06-.1.11-.21.17-.32Z" transform="translate(-73.66 -133.6)"/><path class="cls-5" d="M279.06,559.56l-.18.31.16-.32Z" transform="translate(-73.66 -133.6)"/><path class="cls-5" d="M272.26,566.36l-.18.31c.05-.11.1-.22.16-.33Z" transform="translate(-73.66 -133.6)"/><path class="cls-5" d="M268.46,569.35l.19-.3c0,.11-.1.22-.16.33Z" transform="translate(-73.66 -133.6)"/><path class="cls-5" d="M231.48,596.54l.75-.74Z" transform="translate(-73.66 -133.6)"/><path class="cls-2" d="M383.28,200.85l2.27-.75C385.37,202.09,384.25,201.26,383.28,200.85Z" transform="translate(-73.66 -133.6)"/><path class="cls-10" d="M522.26,305.07l-4.36-.61,2.08-3c-3-.61-2.38-3.46-3-5.62-.48-1.77-.56-3.65-.91-5.47-.08-.43-.52-.79-.8-1.18q1.19-5.64,2.36-11.3c.21-.76.43-1.52.64-2.28.06-.49.13-1,.19-1.47s.35-1,.52-1.55.2-1,.29-1.46a12.76,12.76,0,0,0,.69-1.67q2.31-8.24,4.58-16.48c1.61,0,3.16-.1,2.54-2.46a1.42,1.42,0,0,1,0-1.06c2.17-2.9,1.76-6.62,3.12-9.79a8,8,0,0,0,.15-3.68c0-.41-.81-.75-1.25-1.12l.53-2.3c2.53-.74,2.9-3.2,3.88-5.08,2.31-4.43,4.42-9,6.67-13.43a15.42,15.42,0,0,1,2.13-2.36c-.86,5.74-1.43,10.61-2.35,15.4-2.06,10.64-4.15,21.28-6.52,31.85-3.22,14.36-6.7,28.66-10.1,43A28.63,28.63,0,0,1,522.26,305.07Z" transform="translate(-73.66 -133.6)"/><path class="cls-11" d="M518.5,274.12c-.06.49-.13,1-.19,1.47-1.56.39-1.68,1.17-.64,2.28q-1.17,5.65-2.36,11.3c-.3.95-.61,1.89-.91,2.83q-1-6.35-2-12.68l2.53-.15a8.75,8.75,0,0,0,.46-1.19c2-8.48,4.07-17,6-25.47,1.56-6.77,3.09-13.56,4.47-20.37.37-1.81-.19-3.85.33-5.59a9.88,9.88,0,0,0-.21-6.6c-1.84-4.78-3-10.22-9.88-10.19a.65.65,0,0,1-.34-.15c-3.55-2.12-7.2-1.35-10.86-.39a18.62,18.62,0,0,1,3.48-6.8c2.15,0,3.66-.1,5.14,0a4.13,4.13,0,0,1,2.35.86c3.07,2.89,6,5.89,9,8.86a5.39,5.39,0,0,0,.5.56c3.46,2.53,5,6.06,5.35,10.22,0,.2.31.37.47.55l-.39,1.47c-1.52.58-1,1.75-.84,2.83-.16.83-.31,1.65-.47,2.47-.42.4-1.08.73-1.22,1.2-1.46,5.14-2.91,10.29-4.22,15.47-1.88,7.38-3.66,14.79-5.41,22.21-.13.58.36,1.3.55,1.95-.09.49-.19,1-.29,1.46C518,272.79,517.39,273.17,518.5,274.12Z" transform="translate(-73.66 -133.6)"/><path class="cls-14" d="M519.31,271.11c-.19-.65-.68-1.37-.55-1.95,1.75-7.42,3.53-14.83,5.41-22.21,1.31-5.18,2.76-10.33,4.22-15.47.14-.47.8-.8,1.22-1.2,0,.76.07,1.51.11,2.27l-.53,2.3L524.58,253q-2.28,8.23-4.58,16.48A12.76,12.76,0,0,1,519.31,271.11Z" transform="translate(-73.66 -133.6)"/><path class="cls-19" d="M594.77,183.49a4.06,4.06,0,0,1-2.42,4.62,4.87,4.87,0,0,0-.93.65c-2,1.58-3.43,3.35-1.94,6.06l-6.7-2.78A77,77,0,0,1,594.77,183.49Z" transform="translate(-73.66 -133.6)"/><path class="cls-2" d="M574.39,263.54c-.54,1.49-1,3-1.62,4.48-1.44,3.32-2.89,6.64-4.5,9.88-.44.9-1.45,1.51-2.2,2.26.27-1.7.15-3.58.87-5.06,1.77-3.66,3.89-7.16,5.94-10.68C573.14,264,573.88,263.82,574.39,263.54Z" transform="translate(-73.66 -133.6)"/><path class="cls-19" d="M604.6,201.59c-.5.76-1,1.52-1.51,2.29l-8.32-6,4.87,1.31,3.46,1Z" transform="translate(-73.66 -133.6)"/><path class="cls-2" d="M523.32,338.6v-3.45c1.64,1.39,1.12,2.42.85,3.43Z" transform="translate(-73.66 -133.6)"/><path class="cls-19" d="M589.48,194.82c1.66.09,3.35.12,3.79,2.25Z" transform="translate(-73.66 -133.6)"/><path class="cls-10" d="M520,314.13c-1.26-1.24-.88-2,.72-2.28Z" transform="translate(-73.66 -133.6)"/><path class="cls-14" d="M530.08,227.81c-.19-1.08-.68-2.25.84-2.83Z" transform="translate(-73.66 -133.6)"/><path class="cls-10" d="M521.5,308.09l-2.38-.16v-.45l2.38-.13C521.51,307.59,521.51,307.84,521.5,308.09Z" transform="translate(-73.66 -133.6)"/><path class="cls-8" d="M569.07,305.8c1.92-4.06,3.76-8.16,5.77-12.17,1.91-3.8,4-7.51,6-11.25a14.08,14.08,0,0,1,1.09-1.48c.05.65.37,1.44.12,1.93-3.67,7.17-5.85,14.84-8,22.56a26,26,0,0,1-5.16,10.27c-2.47,2.9-4.29,6.34-6.91,9.4a4,4,0,0,1,.13-1.45c.86-1.67,1.88-3.26,2.7-4.94,1.63-3.36,3.26-6.73,4.69-10.17C569.82,307.78,569.24,306.71,569.07,305.8Z" transform="translate(-73.66 -133.6)"/><path class="cls-8" d="M582.68,279.39c1-2,2-4,3-6,.23.42.74.92.64,1.23C585.69,276.59,585,278.61,582.68,279.39Z" transform="translate(-73.66 -133.6)"/><path class="cls-8" d="M587.22,270.33l2.25-3.79C589.42,268.22,589.34,269.88,587.22,270.33Z" transform="translate(-73.66 -133.6)"/><path class="cls-2" d="M412.73,297.52l.65,1-10.47.52a3.81,3.81,0,0,0-4-2.34,29.58,29.58,0,0,1-5.79-.68c.2-2-1.12-3.21-2.26-4.53a28.87,28.87,0,0,0-1.53-3.77,4.92,4.92,0,0,1,0-5.62c1.38-2,1.49-4,1.25-6.41-.29-2.94.86-5.74,2.33-8.31,5.63,2.3,13.61,18.44,14.81,29.92Z" transform="translate(-73.66 -133.6)"/><path class="cls-2" d="M350.8,299c1-5.25-.61-10-2.53-14.78-.61-1.5-1.29-3-3.49-3.27L343,284.26a25.36,25.36,0,0,1-3.53-6.78c-.46-1.15-.66-2.48-2.27-2.62h-.76v-3l2.27-1.4a27,27,0,0,1-.67-2.64,3.58,3.58,0,0,1,4.69-4.06c1.68.46,3.31,1.1,5,1.66a4.56,4.56,0,0,1,3,3.57c.69,3,.49,6.2,2.17,9,.34.58-.2,1.67-.31,2.53-.28,2.09-.76,4.2.56,6.17.26.38.53,1.11.36,1.34-1.75,2.31-.2,4.53.09,6.77S353.08,298.38,350.8,299Z" transform="translate(-73.66 -133.6)"/><path class="cls-3" d="M390.84,291.47c1.14,1.32,2.46,2.55,2.26,4.53-4.12.4-8.12,2.16-12.35,1.28-.39-3.21,1.84-6.75,4.43-7.26,1.26-.25,1.83.08,3.2,1.94Z" transform="translate(-73.66 -133.6)"/><path class="cls-2" d="M353.07,304.31c-2.41.23-2.32-1.41-2.27-3C353.21,301.06,353.13,302.7,353.07,304.31Z" transform="translate(-73.66 -133.6)"/><path class="cls-6" d="M422.56,316.38l.75.76Z" transform="translate(-73.66 -133.6)"/><path class="cls-8" d="M332.63,363.66l-.76,4.21C331.6,366.39,329.54,364.7,332.63,363.66Z" transform="translate(-73.66 -133.6)"/><path class="cls-5" d="M327.55,271.76v-8l.32,0v7.85Z" transform="translate(-73.66 -133.6)"/><path class="cls-5" d="M328.23,260.37c-.3-.35-.63-.57-.66-.82s.2-.61.32-.92c.3.25.7.45.86.77C328.83,259.56,328.48,259.93,328.23,260.37Z" transform="translate(-73.66 -133.6)"/><path class="cls-2" d="M355.32,322.51l-.18,1.54-.39,0v-1.63Z" transform="translate(-73.66 -133.6)"/><path class="cls-2" d="M346,358.47l-.27.64c-.21-.1-.54-.14-.6-.29s.15-.41.24-.62Z" transform="translate(-73.66 -133.6)"/><path class="cls-5" d="M336.45,274.86h.76l-.15,2.38h-.45Z" transform="translate(-73.66 -133.6)"/><path class="cls-2" d="M346.74,313.17c-.09.21-.14.53-.29.6s-.41-.15-.62-.25c.1-.21.14-.53.29-.59S346.53,313.08,346.74,313.17Z" transform="translate(-73.66 -133.6)"/><path class="cls-8" d="M330.41,361.7l-.17.32.17-.32Z" transform="translate(-73.66 -133.6)"/><path class="cls-13" d="M603.84,235.62a11.21,11.21,0,0,1-.9-7.55c.92-4.75,1-9.65,1.7-14.45.49-3.3,1.47-6.53,2.23-9.79,3.45.76,3.7.87,3,4.34-1.76,9-3.69,17.94-5.57,26.9C604.28,235.28,604,235.44,603.84,235.62Z" transform="translate(-73.66 -133.6)"/><path class="cls-6" d="M631.64,399.17c-1.63-1.32-1.86-2.43-.44-3.26.2-.12.94.22.93.28C632,397.19,631.82,398.18,631.64,399.17Z" transform="translate(-73.66 -133.6)"/><path class="cls-5" d="M331.64,460.84c-.21.08-.48.28-.63.21s-.18-.39-.26-.6c.21-.09.48-.28.63-.22S331.56,460.62,331.64,460.84Z" transform="translate(-73.66 -133.6)"/><path class="cls-17" d="M461.75,157.14c-.36-.09-.82-.08-1.07-.3-3.69-3.44-7.76-6.53-10.21-11.11,5.68-.76,11.35-1.82,17.06-2.2,8.13-.55,16.29-.56,24.43-.87,2.49-.1,5-.69,7.46-.64,6.38.11,12.78.33,19.15.75,4.1.27,8.19.92,12.26,1.55.73.11,1.35.93,2,1.42a44.21,44.21,0,0,1-11.32,10.59c-2.22-.27-4.43-.58-6.66-.79-2.53-.24-5.1-.24-7.61-.62a115.24,115.24,0,0,0-22-.8c-5.7.22-11.37,1.07-17.08,1.36A12.24,12.24,0,0,0,461.75,157.14Z" transform="translate(-73.66 -133.6)"/><path class="cls-20" d="M461.75,157.14a12.24,12.24,0,0,1,6.4-1.66c5.71-.29,11.38-1.14,17.08-1.36a115.24,115.24,0,0,1,22,.8c2.51.38,5.08.38,7.61.62,2.23.21,4.44.52,6.66.79-2.14,1.69-4.25,3.42-6.43,5-1.58,1.18-3.27,2.21-4.91,3.32a4.77,4.77,0,0,0-1.6-.79c-4.22-.32-8.45-.68-12.67-.77-5.64-.13-11.28-.08-16.91,0a12.16,12.16,0,0,0-7.36,2.24c-3-2.25-5.94-4.48-8.88-6.76A6.27,6.27,0,0,1,461.75,157.14Z" transform="translate(-73.66 -133.6)"/><path class="cls-11" d="M471.66,165.36a12.16,12.16,0,0,1,7.36-2.24c5.63-.06,11.27-.11,16.91,0,4.22.09,8.45.45,12.67.77a4.77,4.77,0,0,1,1.6.79c-.57,2.14-2.74,2.42-4.21,3.37-3.74,2.42-7.73,4.43-11.53,6.76-3.64,2.24-3.52,2.21-7.16,0-4.77-2.94-9.67-5.67-14.5-8.51A9.25,9.25,0,0,1,471.66,165.36Z" transform="translate(-73.66 -133.6)"/><path class="cls-15" d="M505.64,183.35l-2.39.74-4.39-.3-4.62,0c-3.11.07-6.22.16-9.32.17-.41,0-.82-.42-1.23-.65a17.68,17.68,0,0,1,3.71-2.25c2.83-.9,5.75-1.52,8.65-2.14a3.51,3.51,0,0,1,2.2.22C500.75,180.49,503.18,182,505.64,183.35Z" transform="translate(-73.66 -133.6)"/><path class="cls-16" d="M483.69,183.35c.41.23.82.66,1.23.65,3.1,0,6.21-.1,9.32-.17l-4.49,3.28-2.23.12-2-.72-3.39-1.24-2.9,1.26-.46-.68C480.23,184.67,481.52,183.14,483.69,183.35Z" transform="translate(-73.66 -133.6)"/><path class="cls-20" d="M455.83,211.45l2.23-1.54h3.77l-1.5,3h0c-.71.21-1.4.43-2.11.6C456.44,214,455.65,213.25,455.83,211.45Z" transform="translate(-73.66 -133.6)"/><path class="cls-12" d="M505,209.22c3.66-1,7.31-1.73,10.86.39a.65.65,0,0,0,.34.15c6.83,0,8,5.41,9.88,10.19a9.88,9.88,0,0,1,.21,6.6c-.52,1.74,0,3.78-.33,5.59-1.38,6.81-2.91,13.6-4.47,20.37-2,8.51-4,17-6,25.47a8.75,8.75,0,0,1-.46,1.19l-2.53.15c-.05-.43-.11-.86-.16-1.29,1.34-1.08.84-2.42.61-3.78-.94-5.51-1.87-11-2.7-16.55s-1.53-11.32-2.39-17c-.08-.53-.94-.94-1.43-1.41L506,238c2-2,.41-3.66-.59-5.36l-.68-.64c0-.18,0-.36,0-.55l-.69-8.32c-.22-1.14-.44-2.29-.65-3.43-.06-.43-.12-.86-.19-1.28,1-.75,1.26-1.55.21-2.46a1.71,1.71,0,0,0-.08-.71l.73-3,.84-1.55Z" transform="translate(-73.66 -133.6)"/><path class="cls-16" d="M504.05,212.22c-.24,1-.49,2-.73,3-2.21-1.69-2.66.82-3.82,1.61l-1.3,0c-1.51-.43-2.17.62-3,1.55-1.76,1.87-3,1.86-4.56-.15-1.41-1.74-3.23-2.12-5.24-2.27l-2.49-8.3-.39-2.25c3.25.78,3.69,1.66,3,6.05,1.93,1.83,5.53.33,6.56,3.59,4.75-1.86,7.42-5.88,11.07-8.63.23-.17.19-.7.28-1.06l0,0a5.15,5.15,0,0,0,.56-.16l.31.15-.15,5.29C504.08,211.21,504.07,211.71,504.05,212.22Z" transform="translate(-73.66 -133.6)"/><path class="cls-16" d="M507.34,195.06c-.51,2.2-1,4.41-1.51,6.61-.09.37-.17.73-.25,1.1-.27.86-.54,1.72-.82,2.58a1.43,1.43,0,0,1-.51.06l-.31-.15-.56.16,0,0L500,206c-.69-2.2,1.46-2.25,1.92-3.36.55-1.33,1-2.72,1.47-4.08.7-.66,1.4-1.32,2.43-2.27-2.51-.74-2.5-2.54-2.42-4.4.05-1.24,0-2.48,0-3.72l0-.32a3.25,3.25,0,0,1,1.62,3c.07,1.44.3,3,2.24,3.17C507.23,194.37,507.28,194.71,507.34,195.06Z" transform="translate(-73.66 -133.6)"/><path class="cls-16" d="M504.76,205.35c.28-.86.55-1.72.82-2.58C505.31,203.63,505,204.49,504.76,205.35Z" transform="translate(-73.66 -133.6)"/><path class="cls-11" d="M504.05,212.22c0-.51,0-1,.05-1.52l.79,0Z" transform="translate(-73.66 -133.6)"/><path class="cls-14" d="M482.48,205.45l.39,2.25c-1.54-1-3.14-1.86-4.63-2.91-1.67-1.2-3.09-2.19-5.29-.66-1,.73-2.84.38-4.3.52,0-.53,0-1.05,0-1.57l.78-.72,1.52-2.24,4-3.17c1.22,1.32,2.34,2.62,3.57,3.81a20.47,20.47,0,0,0,2.3,1.71l.09.27c.21.41.42.82.64,1.23l.75.69C482.33,204.92,482.4,205.19,482.48,205.45Z" transform="translate(-73.66 -133.6)"/><path class="cls-17" d="M461.83,209.92h-3.77l3-4.54a6.9,6.9,0,0,0,2.25.33,18.87,18.87,0,0,0,3.05-1.09l0,.06-1.58,4.43c-.25,0-.5,0-.75.05Z" transform="translate(-73.66 -133.6)"/><path class="cls-16" d="M482.25,204.66l-.75-.69c-.22-.41-.43-.82-.64-1.23l-.09-.27L478.43,197l.22,0,3.05-.14,2.14,4c0,.48-.09,1-.14,1.45Z" transform="translate(-73.66 -133.6)"/><path class="cls-17" d="M468.6,203.08c0,.52,0,1,0,1.57h0l-2.24,0,0-.06C466.43,203.11,467.5,203.07,468.6,203.08Z" transform="translate(-73.66 -133.6)"/><path class="cls-17" d="M470.9,200.12l-1.52,2.24C469.36,201.26,469.32,200.14,470.9,200.12Z" transform="translate(-73.66 -133.6)"/><path class="cls-16" d="M498.86,183.79l4.39.3c.63,1,1.88,2,.13,3.13l-.06.64,0,.32-1.49-.15c-.18-1.44-.72-2.48-2.42-1.8a11.31,11.31,0,0,0-3.15,1.62c-1.2,1.05-2.34,1.07-4.6.44a50.51,50.51,0,0,1,4.87-2.4C497.7,185.49,498.68,185.13,498.86,183.79Z" transform="translate(-73.66 -133.6)"/><path class="cls-16" d="M503.32,187.86l.06-.64c3.66.35,3.66.35,3.76,3.85,0,1,0,2,0,3-1.94-.21-2.17-1.73-2.24-3.17A3.25,3.25,0,0,0,503.32,187.86Z" transform="translate(-73.66 -133.6)"/><path class="cls-16" d="M478.82,195.78c-.17-2.19-1.34-4.55,1.13-6.26a41.09,41.09,0,0,1,4.15-1.24c.58-.11,1.27.31,1.91.49l-5.41,5.94Z" transform="translate(-73.66 -133.6)"/><path class="cls-16" d="M486,188.77c-.64-.18-1.33-.6-1.91-.49a41.09,41.09,0,0,0-4.15,1.24l-.72-3,2.9-1.26,3.39,1.24,2,.72,0,1.23Z" transform="translate(-73.66 -133.6)"/><path class="cls-16" d="M478.82,195.78l1.78-1.07,3.43.5c.59.91,1.25,1.92,2.16,3.34l-2.35,2.34-2.14-4-3.05.14C478.71,196.58,478.76,196.18,478.82,195.78Z" transform="translate(-73.66 -133.6)"/><path class="cls-21" d="M502.56,322.35l-1.36.91-.92-.15c-.39-2.17-1.67-1.26-2.71-.72-2.36,1.24-4.67,2.56-7,3.85a22.16,22.16,0,0,0-.86-4,27.12,27.12,0,0,0-2.27-3.73c4.57-3.81,9.94-6.24,15.18-8.9a7.48,7.48,0,0,1-1.45,5.29,21.52,21.52,0,0,0-2.25,4.28c-.16.36.13.93.25,1.56l3.3-.15Z" transform="translate(-73.66 -133.6)"/><path class="cls-21" d="M489.05,313.4a3.59,3.59,0,0,0-1.69-3.7,3.84,3.84,0,0,1-2.11-3.95l10.55-6c1.82,2.75,1.9,5.94,2.26,9.05-.66.3-1.3.64-2,.88C493.56,310.59,492,313.31,489.05,313.4Z" transform="translate(-73.66 -133.6)"/><path class="cls-21" d="M489.05,313.4c2.95-.09,4.51-2.81,7-3.72.68-.24,1.32-.58,2-.88l6.58-3.08c.1,1.11.15,1.7.21,2.29l-2.23,1.59c-5.24,2.66-10.61,5.09-15.18,8.9L479,323c-1-1.4-.07-2.07.88-2.73,2.53-1.78,5.08-3.55,7.59-5.35A15.94,15.94,0,0,0,489.05,313.4Z" transform="translate(-73.66 -133.6)"/><path class="cls-21" d="M495.8,299.75l-10.55,6-3,1-.12-1.75,2.35-2.2c5.16-2.71,10.33-5.4,15.47-8.15a11.9,11.9,0,0,0,1.92-1.65,7.84,7.84,0,0,0,6.82-3.08c1.56.09,1.48,1.26,1.53,2.34a4.34,4.34,0,0,0-.14.6l-1.42.89Z" transform="translate(-73.66 -133.6)"/><path class="cls-16" d="M490.57,326.24c2.33-1.29,4.64-2.61,7-3.85,1-.54,2.32-1.45,2.71.72-3.68,2.37-7.34,4.76-11,7.11-2.3,1.47-4.64,2.86-7,4.33-1.12-1.56-.35-2.28.64-3Q486.72,328.94,490.57,326.24Z" transform="translate(-73.66 -133.6)"/><path class="cls-16" d="M498.32,337c-.07.2-.14.4-.22.59l-12.66,7.94c0-1.25-.19-2,0-2.13,3.82-2.75,7.69-5.44,11.81-8.32Z" transform="translate(-73.66 -133.6)"/><path class="cls-16" d="M494.65,352c-.09.22-.18.44-.26.66l-5.66,3.13C489.5,352.38,492.06,350.92,494.65,352Z" transform="translate(-73.66 -133.6)"/><path class="cls-21" d="M481.07,242.91c.14-.61.29-1.21.43-1.81l1.49-1,2.19-.8c2.27,1.61,3.95-.21,5.82-1q6.15-2.55,12.31-5.06c.22,1.17-.44,2.76,1.49,3.11l.09,2.21.62,1.46c-.4,1-.37,1.86.77,2.36l.09,1.33-1.46.92c-.14-.7-.29-1.39-.53-2.61a115.05,115.05,0,0,0-21.62,11c2.12,1.05,3.16-.15,4.34-.65,5.95-2.55,11.88-5.14,17.82-7.71.29,3,.57,6,.86,8.95-2.87,1.23-5.78,2.38-8.6,3.71-5.29,2.51-10.52,5.13-15.78,7.7-.33-3.47,1.1-7.16-1.36-10.23a31.07,31.07,0,0,0,1.38-3.52c.5-2,.72-4.09,1.27-6.09C483.12,243.61,482.24,243.22,481.07,242.91Z" transform="translate(-73.66 -133.6)"/><path class="cls-16" d="M481.07,242.91c1.17.31,2.05.7,1.62,2.29-.55,2-.77,4.08-1.27,6.09a31.07,31.07,0,0,1-1.38,3.52c2.46,3.07,1,6.76,1.36,10.23l-1.54,1.38L477.28,268c2.32.95,2.87,2.35,2.69,4.29a53.46,53.46,0,0,0,0,5.66l-2.32,2.14c-1.42.36-2.23,1.3-.7,2.15s1.27,1.81,1.5,3c.35,1.86,1,3.67,1.49,5.5-.6.74-1.26,1.44-1.79,2.23-.75,1.12,0,1.47,1,1.68,2.61,2.17,4,5.16,5.34,8.15l-2.35,2.2-2.12.12c-.29-1.95-.47-3.92-.91-5.84-.52-2.28-2.32-2.66-4.35-2.49.27-6.87.13-13.79.9-20.6,1.14-10.06,2.92-20.05,4.47-30.06A23.51,23.51,0,0,1,481.07,242.91Z" transform="translate(-73.66 -133.6)"/><path class="cls-16" d="M485.36,216c2,.15,3.83.53,5.24,2.27,1.61,2,2.8,2,4.56.15.87-.93,1.53-2,3-1.55-.79,1.46-1.57,2.93-2.36,4.4a3.74,3.74,0,0,1-.66.09h-7.44c-.09,1.47-.16,2.56-.22,3.66l-2.92,2.31-.06,0Z" transform="translate(-73.66 -133.6)"/><path class="cls-16" d="M483,240.14l-1.49,1q1.51-6.9,3-13.79l.06,0a13.3,13.3,0,0,1-.74,8.52A23.13,23.13,0,0,0,483,240.14Z" transform="translate(-73.66 -133.6)"/><path class="cls-14" d="M466.4,204.67l2.24,0c-.65,2-1.68,3.71-3.82,4.45Z" transform="translate(-73.66 -133.6)"/><path class="cls-14" d="M461.83,209.92l2.24-.77c-.44,3-.68,3.29-3.74,3.78Z" transform="translate(-73.66 -133.6)"/><path class="cls-5" d="M380.54,314.72l4.07-.55C383.84,317.64,383.37,317.75,380.54,314.72Z" transform="translate(-73.66 -133.6)"/><path class="cls-8" d="M494.06,464l-1.55-2.11-2,2.35c-2.69-.71-4-2.41-4.5-5.29l4.06-1v-.62l-3.35-.66c.34-3.56,1.82-5,5.36-5.06s6.12,1.79,6.64,4.82A7.09,7.09,0,0,1,494.06,464Z" transform="translate(-73.66 -133.6)"/><path class="cls-16" d="M510.22,292.25c-.05-1.08,0-2.25-1.53-2.34l.72-10.52h0l2-2.29-2.68-.84c-.24-2.79.53-5.79-1.54-8.22l.72-.71,1.59-2.39a17.36,17.36,0,0,1,.67,2.08c.74,3.67,1.42,7.34,2.13,11,.05.43.11.86.16,1.29q1,6.33,2,12.68l-.79.79Z" transform="translate(-73.66 -133.6)"/><path class="cls-16" d="M502.62,309.6l2.23-1.59,1.52-.7.18.16-3.61,10.76,1.16,3.42-1.53.7c0-.5-.06-1-.1-1.77l-3.3.15c-.12-.63-.41-1.2-.25-1.56a21.52,21.52,0,0,1,2.25-4.28A7.48,7.48,0,0,0,502.62,309.6Z" transform="translate(-73.66 -133.6)"/><path class="cls-21" d="M506.37,307.31l-1.52.7c-.06-.59-.11-1.18-.21-2.29l-6.58,3.08c-.36-3.11-.44-6.3-2.26-9.05l12.86-6c.64,3.66-2.27,6-3.33,9.08a7.49,7.49,0,0,1-.58,1.12C505.34,305.17,505.85,306.24,506.37,307.31Z" transform="translate(-73.66 -133.6)"/><path class="cls-4" d="M524.58,253l4.61-18.11c.44.37,1.21.71,1.25,1.12a8,8,0,0,1-.15,3.68c-1.36,3.17-.95,6.89-3.12,9.79a1.42,1.42,0,0,0,0,1.06C527.74,252.86,526.19,252.93,524.58,253Z" transform="translate(-73.66 -133.6)"/><path class="cls-14" d="M517.67,277.87c-1-1.11-.92-1.89.64-2.28C518.1,276.35,517.88,277.11,517.67,277.87Z" transform="translate(-73.66 -133.6)"/><path class="cls-14" d="M518.5,274.12c-1.11-.95-.53-1.33.52-1.55C518.85,273.09,518.68,273.6,518.5,274.12Z" transform="translate(-73.66 -133.6)"/><path class="cls-16" d="M498.86,183.79c-.18,1.34-1.16,1.7-2.29,2.1a50.51,50.51,0,0,0-4.87,2.4c2.26.63,3.4.61,4.6-.44a11.31,11.31,0,0,1,3.15-1.62c1.7-.68,2.24.36,2.42,1.8l-2.1.91c-1.12-.19-2.2-.32-2.49,1.21l-6.72,0-.81-3.08,4.49-3.28Z" transform="translate(-73.66 -133.6)"/><path class="cls-16" d="M489.75,187.11l.81,3.08-3.07-1.73,0-1.23Z" transform="translate(-73.66 -133.6)"/><path class="cls-11" d="M512.28,278c-.71-3.67-1.39-7.34-2.13-11a17.36,17.36,0,0,0-.67-2.08l0,.08c-.51-3.36-1-6.71-1.52-10.06l-.14-1.13-1.47-10.07-.09-1.33.09-3.1c.49.47,1.35.88,1.43,1.41.86,5.64,1.55,11.32,2.39,17s1.76,11,2.7,16.55C513.12,275.61,513.62,277,512.28,278Z" transform="translate(-73.66 -133.6)"/><path class="cls-16" d="M503.2,218.41l.18,1.28c.21,1.14.43,2.29.65,3.43l.69,8.32L503.4,231a5,5,0,0,0-.67,0c-.26-1.32-.45-2.66-.79-4-.6-2.26-1-4.5-.08-6.76.28-.63.55-1.25.82-1.88l.26,0Z" transform="translate(-73.66 -133.6)"/><path class="cls-16" d="M502.68,218.4c-.27.63-.54,1.25-.82,1.88h-1.42c-.32-1.14-.63-2.28-.94-3.42,1.16-.79,1.61-3.3,3.82-1.61a1.71,1.71,0,0,1,.08.71Z" transform="translate(-73.66 -133.6)"/><path class="cls-16" d="M506.37,239.33l-.09,3.1c-1.14-.5-1.17-1.36-.77-2.36l-.62-1.46-.09-2.21c-.2-1.26-.41-2.52-.62-3.78l.59-.63.68.64c.2,1.79.39,3.57.59,5.36Z" transform="translate(-73.66 -133.6)"/><path class="cls-11" d="M506,238c-.2-1.79-.39-3.57-.59-5.36C506.45,234.33,508,236,506,238Z" transform="translate(-73.66 -133.6)"/><path class="cls-11" d="M502.68,218.4l.72-2.45c1.05.91.8,1.71-.21,2.46h-.25Z" transform="translate(-73.66 -133.6)"/><path class="cls-11" d="M504,223.12c-.22-1.14-.44-2.29-.65-3.43C503.59,220.83,503.81,222,504,223.12Z" transform="translate(-73.66 -133.6)"/><path class="cls-16" d="M503.4,231l1.32.44c0,.19,0,.37,0,.55l-.59.63-.79,0Z" transform="translate(-73.66 -133.6)"/><path class="cls-16" d="M482.25,204.66l1.45-2.32c2.29.77,4.27,1.89,5.05,4.47-.29.85-.61,1.79-1.2,3.55l3.64-2.53c3.21,1.56,3.93,1.21,4.66-2.08.16-.71.23-1.66.7-2.05,2.2-1.8,4.53-3.44,6.82-5.13-.49,1.36-.92,2.75-1.47,4.08-.46,1.11-2.61,1.16-1.92,3.36l3.43-.61c-.09.36-.05.89-.28,1.06-3.65,2.75-6.32,6.77-11.07,8.63-1-3.26-4.63-1.76-6.56-3.59.67-4.39.23-5.27-3-6.05C482.4,205.19,482.33,204.92,482.25,204.66Z" transform="translate(-73.66 -133.6)"/><path class="cls-16" d="M499.5,216.85l.93,3.42-4.59,1c.79-1.47,1.57-2.94,2.36-4.4Z" transform="translate(-73.66 -133.6)"/><path class="cls-22" d="M503.38,205.42l.56-.16A5.15,5.15,0,0,1,503.38,205.42Z" transform="translate(-73.66 -133.6)"/><path class="cls-21" d="M503.37,198.57c-2.29,1.69-4.62,3.33-6.82,5.13-.47.39-.54,1.34-.7,2.05-.73,3.29-1.45,3.64-4.66,2.08l-3.64,2.53c.59-1.76.91-2.7,1.2-3.55-.78-2.58-2.76-3.7-5.05-4.47.05-.48.09-1,.14-1.45l2.35-2.34c-.91-1.42-1.57-2.43-2.16-3.34l-3.43-.5,5.41-5.94,1.48-.31,3.07,1.73,6.72,0c1.12.2,2.1.11,2.49-1.21l2.1-.91,1.49.15c0,1.24.07,2.48,0,3.72-.08,1.86-.09,3.66,2.42,4.4C504.77,197.25,504.07,197.91,503.37,198.57ZM498,193.78l-.39-.81c-4.32-.8-8.95,2.34-8.87,6.31Z" transform="translate(-73.66 -133.6)"/><path class="cls-15" d="M480.86,202.74c.21.41.42.82.64,1.23C481.28,203.56,481.07,203.15,480.86,202.74Z" transform="translate(-73.66 -133.6)"/><path class="cls-21" d="M484.48,302.79c-1.37-3-2.73-6-5.34-8.16,3.59-1.95,7.14-4,10.79-5.84,3.42-1.73,6.94-3.27,10.41-4.89l1.53,9.09a11.9,11.9,0,0,1-1.92,1.65C494.81,297.39,489.64,300.08,484.48,302.79Z" transform="translate(-73.66 -133.6)"/><path class="cls-21" d="M501.87,293l-1.53-9.09c2.69-2.19,5.89-3.33,9.07-4.51l-.72,10.52A7.84,7.84,0,0,1,501.87,293Z" transform="translate(-73.66 -133.6)"/><path class="cls-16" d="M483,240.14a23.13,23.13,0,0,1,.87-4.29,13.3,13.3,0,0,0,.74-8.52l2.92-2.31,6.09-2.23c-.77,4.47-1.93,8.78-6.33,11.12-2.09,1.11-2.17,2.81-2,4.73a5.36,5.36,0,0,1-.1.7Z" transform="translate(-73.66 -133.6)"/><path class="cls-21" d="M479.86,266.42,481.4,265c5.26-2.57,10.49-5.19,15.78-7.7,2.82-1.33,5.73-2.48,8.6-3.71l.32,0,.32,0c0,.57,0,1.14.05,1.71l-.81,1.37q-9.89,4.38-19.75,8.77c-1.48.66-2.9,1.44-4.36,2.13C480.31,268.21,480,267.35,479.86,266.42Z" transform="translate(-73.66 -133.6)"/><path class="cls-21" d="M504.92,244.68c-5.94,2.57-11.87,5.16-17.82,7.71-1.18.5-2.22,1.7-4.34.65a115.05,115.05,0,0,1,21.62-11c.24,1.22.39,1.91.53,2.61Z" transform="translate(-73.66 -133.6)"/><path class="cls-21" d="M485.18,239.34a5.36,5.36,0,0,0,.1-.7c1.21-.58,2.44-1.11,3.62-1.74,4.44-2.36,8.67-5.22,13.83-5.91a5,5,0,0,1,.67,0c0,.52,0,1.05,0,1.58,0,.24-.05.47-.08.7q-6.15,2.52-12.31,5.06C489.13,239.13,487.45,241,485.18,239.34Z" transform="translate(-73.66 -133.6)"/><path class="cls-16" d="M506.42,253.64l-.32,0-.32,0c-.29-3-.57-6-.86-8.95h0l1.46-.92,1.47,10.07Z" transform="translate(-73.66 -133.6)"/><path class="cls-16" d="M503.31,233.29c0-.23.05-.46.08-.7l.79,0c.21,1.26.42,2.52.62,3.78C502.87,236.05,503.53,234.46,503.31,233.29Z" transform="translate(-73.66 -133.6)"/><path class="cls-16" d="M504.89,238.61l.62,1.46Z" transform="translate(-73.66 -133.6)"/><path class="cls-21" d="M479.86,266.42c.18.93.45,1.79,1.69,1.2,1.46-.69,2.88-1.47,4.36-2.13q9.87-4.41,19.75-8.77a9.34,9.34,0,0,1,1.52,5.93c-.23,1.75.59,2.51,2.32,2.37l0-.08-1.59,2.39c-.17-1.67-1.36-1.76-2.47-1.32-2.45,1-4.86,2-7.21,3.21-5.71,2.83-11.39,5.75-17.09,8.61a3.12,3.12,0,0,1-1.12.11,53.46,53.46,0,0,1,0-5.66c.18-1.94-.37-3.34-2.69-4.29Z" transform="translate(-73.66 -133.6)"/><path class="cls-21" d="M480,290.73c-.51-1.83-1.14-3.64-1.49-5.5-.23-1.19-.06-2.2-1.5-3s-.72-1.79.7-2.15c.12,1.07.52,1.61,1.72,1.09,3.19-1.38,6.41-2.71,9.63-4.05-.35,1.91-.26,4.09-1.18,5.67s-.59,2.74-.33,4.14C485.12,288.42,483.09,290.66,480,290.73Z" transform="translate(-73.66 -133.6)"/><path class="cls-21" d="M480,290.73c3.12-.07,5.15-2.31,7.55-3.8l12.08-6c2.32-.89,4.64-1.82,7-2.68,1.24-.45,2.52-.74,2.84,1.18h0c-3.18,1.18-6.38,2.32-9.07,4.51-3.47,1.62-7,3.16-10.41,4.89-3.65,1.85-7.2,3.89-10.79,5.84-.94-.2-1.71-.55-1-1.67C478.71,292.17,479.37,291.47,480,290.73Z" transform="translate(-73.66 -133.6)"/><path class="cls-21" d="M489,277.11c-3.22,1.35-6.44,2.68-9.63,4.06-1.2.52-1.6,0-1.72-1.09l2.32-2.14a3.12,3.12,0,0,0,1.12-.11c5.7-2.86,11.38-5.78,17.09-8.61,2.35-1.17,4.76-2.25,7.21-3.21,1.11-.44,2.3-.35,2.47,1.32l-.72.71-9.84,4.53Z" transform="translate(-73.66 -133.6)"/><path class="cls-21" d="M502.73,231c-5.16.69-9.39,3.55-13.83,5.91-1.18.63-2.41,1.16-3.62,1.74-.17-1.92-.09-3.62,2-4.73,4.4-2.34,5.56-6.65,6.33-11.12l1.57-1.43a3.74,3.74,0,0,0,.66-.09l4.59-1h1.43c-.93,2.26-.52,4.5.08,6.76C502.28,228.33,502.47,229.67,502.73,231Z" transform="translate(-73.66 -133.6)"/><path class="cls-16" d="M495.18,221.36l-1.57,1.43L487.52,225c.06-1.1.13-2.19.22-3.66Z" transform="translate(-73.66 -133.6)"/><path class="cls-21" d="M497.33,272.57l9.84-4.53c2.07,2.43,1.3,5.43,1.54,8.22l2.68.84-2,2.29c-.32-1.92-1.6-1.63-2.84-1.18-2.34.86-4.66,1.79-7,2.68C498.84,278.12,498.08,275.34,497.33,272.57Z" transform="translate(-73.66 -133.6)"/><path class="cls-16" d="M499.77,188.94c-.39,1.32-1.37,1.41-2.49,1.21C497.57,188.62,498.65,188.75,499.77,188.94Z" transform="translate(-73.66 -133.6)"/><path class="cls-16" d="M509.5,265c-1.73.14-2.55-.62-2.32-2.37a9.34,9.34,0,0,0-1.52-5.93l.81-1.37L508,255C508.49,258.31,509,261.66,509.5,265Z" transform="translate(-73.66 -133.6)"/><path class="cls-16" d="M508,255l-1.51.39c0-.57,0-1.14-.05-1.71l1.42.19C507.89,254.2,507.94,254.58,508,255Z" transform="translate(-73.66 -133.6)"/><path class="cls-21" d="M498,193.78l-9.26,5.5c-.08-4,4.55-7.11,8.87-6.31Z" transform="translate(-73.66 -133.6)"/><path class="cls-21" d="M497.33,272.57c.75,2.77,1.51,5.55,2.27,8.32l-12.08,6c-.26-1.4-.57-2.59.33-4.14s.83-3.76,1.18-5.67Z" transform="translate(-73.66 -133.6)"/></svg>